/* XPM */
static char *result[] = {
/* columns rows colors chars-per-pixel */
"64 64 239 2 ",
"   c #161C21",
".  c #191E22",
"X  c #281D25",
"o  c #371D28",
"O  c #1E2221",
"+  c #232222",
"@  c #2B2324",
"#  c #2C2A23",
"$  c #362326",
"%  c #3A2327",
"&  c #352A23",
"*  c #392C23",
"=  c #3D3224",
"-  c #383926",
";  c #363D3B",
":  c #2D3B25",
">  c #5B351F",
",  c #6A3D1D",
"<  c #56172C",
"1  c #4B1E2C",
"2  c #442B25",
"3  c #49222A",
"4  c #462629",
"5  c #5A232D",
"6  c #53292A",
"7  c #58292B",
"8  c #4D3424",
"9  c #463927",
"0  c #5B3622",
"q  c #5E3923",
"w  c #593726",
"e  c #4F3434",
"r  c #65242E",
"t  c #69272E",
"y  c #6F2B2D",
"u  c #642A2C",
"i  c #732D2D",
"p  c #673728",
"a  c #74332C",
"s  c #7C342B",
"d  c #7B392C",
"f  c #733928",
"g  c #763931",
"h  c #7B3C30",
"j  c #733632",
"k  c #6B3030",
"l  c #3C5F29",
"z  c #5C4226",
"x  c #574027",
"c  c #57483A",
"v  c #4D462C",
"b  c #654426",
"n  c #6B4926",
"m  c #6A4326",
"M  c #794525",
"N  c #6A5829",
"B  c #7E5528",
"V  c #714834",
"C  c #4A622F",
"Z  c #6F622E",
"A  c #79411E",
"S  c #753B43",
"D  c #3F6062",
"F  c #535953",
"G  c #776D67",
"H  c #606357",
"J  c #853527",
"K  c #81352B",
"L  c #843B2C",
"P  c #893C2A",
"I  c #8B3F27",
"U  c #87451F",
"Y  c #854623",
"T  c #8A4922",
"R  c #8F4029",
"E  c #84472A",
"W  c #9E4424",
"Q  c #9E4A26",
"!  c #924229",
"~  c #9C4528",
"^  c #954A2D",
"/  c #9D4B29",
"(  c #895928",
")  c #985729",
"_  c #884931",
"`  c #8B5532",
"'  c #9C5530",
"]  c #955A33",
"[  c #9A5C33",
"{  c #955634",
"}  c #954E34",
"|  c #A24523",
" . c #A34927",
".. c #A34B28",
"X. c #A84E27",
"o. c #AE5325",
"O. c #AA5729",
"+. c #B55626",
"@. c #B55926",
"#. c #BA5926",
"$. c #B25C2A",
"%. c #BA5927",
"&. c #A65B31",
"*. c #98632A",
"=. c #996135",
"-. c #9A7C31",
";. c #8A6B31",
":. c #A1662A",
">. c #A76529",
",. c #B4632C",
"<. c #B8692E",
"1. c #A7722D",
"2. c #B8742B",
"3. c #A76534",
"4. c #B76B35",
"5. c #AA7B35",
"6. c #BA7836",
"7. c #C35D24",
"8. c #C56125",
"9. c #CA6626",
"0. c #C3692A",
"q. c #CC6D29",
"w. c #CA6828",
"e. c #CB732D",
"r. c #C8772D",
"t. c #DB7529",
"y. c #D27E2C",
"u. c #D7762A",
"i. c #CA6C35",
"p. c #CB723C",
"a. c #C77733",
"s. c #D0732B",
"d. c #E27E2B",
"f. c #8F5245",
"g. c #916C58",
"h. c #AE6E4B",
"j. c #90746A",
"k. c #A56756",
"l. c #CB7A4B",
"z. c #679334",
"x. c #5C9330",
"c. c #769058",
"v. c #918733",
"b. c #A78632",
"n. c #BB8537",
"m. c #AB9333",
"M. c #B09233",
"N. c #A0BF3C",
"B. c #DE8A2D",
"V. c #D6852E",
"C. c #C18436",
"Z. c #C88935",
"A. c #DA8934",
"S. c #C89938",
"D. c #D69535",
"F. c #E5822C",
"G. c #E8852C",
"H. c #EA8A2D",
"J. c #E18A2F",
"K. c #E8912F",
"L. c #E69A33",
"P. c #EC9C33",
"I. c #E69635",
"U. c #F29932",
"Y. c #E08F30",
"T. c #D9A539",
"R. c #DCB43A",
"E. c #CCAE39",
"W. c #EAA535",
"Q. c #EEAB36",
"!. c #E4A838",
"~. c #F6A736",
"^. c #E8B63B",
"/. c #F3BB3A",
"(. c #F7B538",
"). c #EBA42E",
"_. c #84C039",
"`. c #9FD53A",
"'. c #B5D53D",
"]. c #D4D03E",
"[. c #EBC73E",
"{. c #FBC43B",
"}. c #F8C63D",
"|. c #FFD23D",
" X c #F1D13F",
".X c #E0D13E",
"XX c #AE8C56",
"oX c #82817A",
"OX c #A78A64",
"+X c #B58E72",
"@X c #A59E62",
"#X c #DE8B59",
"$X c #D3904A",
"%X c #E29755",
"&X c #D0A54A",
"*X c #EDB04D",
"=X c #D2946D",
"-X c #E19A69",
";X c #EBB46F",
":X c #C8BF63",
">X c #ABDA4A",
",X c #A4CB64",
"<X c #CED941",
"1X c #F6C753",
"2X c #EFD14C",
"3X c #F5D175",
"4X c #F8E273",
"5X c #D0DF6A",
"6X c #66938F",
"7X c #6BA69C",
"8X c #7AC5B9",
"9X c #75D8D3",
"0X c #7CE3DF",
"qX c #93AD8E",
"wX c #B0A894",
"eX c #A6A7A0",
"rX c #CFAC95",
"tX c #ECB993",
"yX c #CB9C81",
"uX c #8ECFB7",
"iX c #A8D6AE",
"pX c #AECB8F",
"aX c #F0CF93",
"sX c #D4CDAC",
"dX c #E7D3BC",
"fX c #F0D8AE",
"gX c #EDE9AB",
"hX c #DEDB87",
"jX c #87D8CE",
"kX c #83E2D8",
"lX c #ADE6D0",
"zX c #91E7E5",
"xX c #ABECE8",
"cX c #AED4CB",
"vX c #E4DBC7",
"bX c #D3ECD0",
"nX c #ECEACC",
"mX c #CEE5DB",
"MX c None",
/* pixels */
"MXMXMXMXMXMXMXMXMXMXMXMXMXMXMXMXMXMXMXMXMXMXMXMXMXMXMXMXMXMXMXMXMXMXMXMXMXMXMXMXMXMXMXMXMXMXMXMXMXMXMXMXMXMXMXMXMXMXMXMXMXMXMXMX",
"MXMXMXMXMXMXMXMXMXMXMXMXMXMXMXMXMXMXMXMXMXMXMXMXMXMXMXMXMXMXMXMXMXMXMXMXMXMXMXMXMXMXMXMXMXMXMXMXMXMXMXMXMXMXMXMXMXMXMXMXMXMXMXMX",
"MXMXMXMXMXMXMXMXMXMXMXMXMXMXMXMXMXMXMXMXMXMXMXMXMXMXMXMXMXMXMXMXMXMXMXMXMXMXMXMXMXMXMXMXMXMXMXMXMXMXMXMXMXMXMXMXMXMXMXMXMXMXMXMX",
"MXMXMXMXMXMXMXMXMXMXMXMXMXMXMXMXMXMXMXMXMXMXMXMXMXMXMXMXMXMXMXMXMXMXMXMXMXMXMXMXMXMXMXMXMXMXMXMXMXMXMXMXMXMXMXMXMXMXMXMXMXMXMXMX",
"MXMXMXMXMXMXMXMXMX. . . O O O MXMXMXMXMXMXMXMXMXMXMXMXMXMXMXMXMXMXMXMXMXMXMXMXMXMXMXMXMXMXMXMXMXMX+ O O . . . MXMXMXMXMXMXMXMXMX",
"MXMXMXMXMXMXMXMX+ + + @ + + + + MXMXMXMXMXMXMXMXMXMXMXMXMXMXMXMXMXMXMXMXMXMXMXMXMXMXMXMXMXMXMXMX+ + + + + + + + MXMXMXMXMXMXMXMX",
"MXMXMXMXMXMXMXMX= * * & & $ @ @ MXMXMXMXMXMXMXMXMXMXMXMXMXMXMXMXMXMXMXMXMXMXMXMXMXMXMXMXMXMXMXMX+ @ @ $ & * = = MXMXMXMXMXMXMXMX",
"MXMXMXMXMXMXMX8 z b z w 8 % $ X @ MXMXMXMXMXMXMXMXMXMXMXMXMXMXMXMXMXMXMXMXMXMXMXMXMXMXMXMXMXMXX o $ % 8 w b b z 8 MXMXMXMXMXMXMX",
"+ + O     . & z B ) ) M p 7 4 o X X         .     .   .   .   . . .     . . . .   .       . . X o 3 6 p E ) ( B z & .   . . O O ",
"+ + O . . + = n *.2.r.&._ k 6 3 $ @ O + + + + + + + + + + + + + + + + + + + O + + + + O + + @ $ o 5 k R >.r.2.*.n = + O O X + + ",
"O + + # # * x B 2.V.A.a.&.d r 6 2 2 = * * = = = = = * 2 = = * = = = = = = * = = = = 2 = 2 = 2 2 6 r h &.r.B.V.2.( x * # # + + O ",
"O + # * 9 b B 1.Z.).L.y.&.P i p f n n n n n n n n n n n n n n n n n n n n n n n n n n n n n n p k j L &.y.I.).Z.1.B z 9 & # + + ",
"O + & 8 A ( 2.Z.!.Q.W.D.3.^ L E ) ) *.:.:.:.:.:.:.*.:.:.>.:.:.:.:.:.:.:.:.:.:.:.:.:.*.:.>.:.*.) E L ^ ,.Z.W.Q.L.Z.1.) n 8 & O O ",
"  + * b ( 2.V.).Q./.Q.Z.4./ ^ / ,.e.V.V.V.y.y.V.V.y.y.V.y.y.y.V.y.y.y.y.y.V.y.y.y.V.V.V.V.V.r.,...^ / 1.D.^./.(.).B.2.( z = +   ",
"  + = b *.y.H.~.(./.^.D.<.' / O.0.V.G.G.G.G.G.G.G.G.G.G.G.H.G.G.G.G.G.G.G.G.G.G.G.G.G.G.G.G.t.0.O./ ' 4.D.!.(.(.~.H.r.*.b 2 +   ",
"  O = m ) s.H.U.~.(.W.Z.<.' ~ o.0.t.G.G.G.G.d.G.F.F.G.G.d.G.G.G.G.G.G.G.F.G.F.G.F.F.F.G.F.F.u.0.o./ ) <.D.).(.~.U.G.s.) n * +   ",
". + * p ) <.t.H.U.U.P.V.,./ ~ X.%.e.d.t.t.t.t.t.t.t.t.t.t.d.d.t.t.d.t.t.t.t.t.t.t.t.t.t.t.t.9.#.X.~ / <.V.I.P.U.H.t.<.) q * + . ",
". + * 0 T ,.q.F.H.K.J.r.,./ ^  .+.8.9.9.9.9.9.9.9.9.9.9.9.8.9.8.9.9.9.9.9.9.9.9.9.9.9.9.9.9.8.+. .^ ^ ,.e.J.K.H.d.s.,.Y > = + . ",
". + * > U o.9.t.F.G.B.e.$.} ~  .o.#.7.8.8.7.7.7.7.#.7.#.#.#.+.+.#.+.+.%.#.#.7.7.7.8.8.9.9.7.#.o. .! / $.e.B.G.G.t.9.+.Y > * + . ",
". + * > U o.8.t.d.F.d.q.$./ ^ W o.#.7.7.7.7.7.#.+.+.o.X. .| ~ ~ I ~ |  .X.o.+.+.#.7.7.7.7.7.#.o. .^ / $.q.F.G.d.t.8.o.U > * + . ",
"O + & > U o.8.u.d.G.d.e.$. .^  .o.#.7.7.7.7.7.#.o.X./ ! P K K s K K K P ! | X.o.#.#.7.7.7.7.#.X.W ~ / $.e.B.G.d.t.8.o.Y 0 & + . ",
"O + & > Y o.9.t.G.H.F.e.$./ ! / o.7.7.8.9.7.7.+.X./ ! L K a y u i i i K L ! ~ O.+.7.8.7.8.8.7.+.W ^ / $.e.t.G.F.t.9.$.U 0 & + . ",
"  O * z T ,.s.F.H.H.B.a.$.^ ! ..+.0.e.s.s.q.0.@...R P s d h g g g g s h s L ! X.$.0.q.u.s.q.0.@./ ! ^ $.a.J.K.H.F.s.,.T 0 * + . ",
"  + = b *.C.Y.P.~.W.L.a.&.R E / <.y.B.K.Y.B.V.<.' R L _ _ ] ] =.=.[ { _ _ L E / <.V.B.K.Y.B.V.<.' R R &.a.L.~.~.).B.C.*.b = +   ",
"  + = N 1.S.).(.{.(.).C.[ _ L ' 6.D.Q.(.Q.Q.D.6.&.E d _ =.n.n.Z.S.n.n.=._ h L [ a.D.Q.(.Q.Q.D.2.' L _ [ n.!.(.(.(.Q.S.1.n = +   ",
"  + 9 N b.T.{.{.|./.!.n.[ d h ] 6.!./.{.}./.!.n.] d g { 6.T.^.2X[.*XT.5.{ h h ] n.!.{.{.{./.!.n.] h d [ C.!.{.{.{./.T.b.N - O   ",
"  + * N -.S.R.[.}.}.Q.n.[ d g ` 5.S.R.^.*XR.S.5.` j g ] n.!.{.|.|.}.^.n.] g j ` b.S.R.^.^.R.S.b.` h d [ C.Q.{.}.}.^.S.-.N = +   ",
". O : v Z v.M.E.!.(.W.Z.&.L f E *.b.m.m.m.m.-.;.p k a { C.Q.(.|.|.|.^.S.=.g u g ( -.m.m.m.m.b.( M a E ) Z.!.(.R.E.M.v.Z v * O O ",
"O + # = v N ;.b.S.).L.y.O.I f f n N N Z Z N N p u 7 i } a.L.(.{.|.|.^.S.=.g 5 7 p N N Z Z N N n V f R ,.V.L.).S.b.Z N v - # + O ",
"+ + + @ # - v ( 2.V.A.y.,.^ L f w 9 - - - 9 9 8 6 u i } <.A.U.(.{.*X^.S.=.g 7 6 6 4 9 - - 9 8 q k L ^ ,.u.B.V.2.( x - & + + + O ",
"O + + + # & 8 M *.2.r.a.4.k.} ` c l & : : : - 9 e g _ ' ,.a.J.I.Q.!.&XZ.3._ j e e ; ; ; l ; e c V _ X.,.q.r.2.*.B 8 & @ + O + + ",
"O X @ & * > > , B ) :.4.h.+Xj.j.H Z C l l C C Z Z =.=.3.,.,.<.a.C.C.n.6.3.3.] V F D D D D G G g.h.4.<.,.>.:.) B A > 8 2 & # + O ",
"O + # 2 > A A f , , V g.wXrXsXwX@Xz.z.x.x.z.z.v.b.M.n.6.&.} } } ] [ &.3.6.6.6.OXc.6X6X6X7XeXwX=X=Xl.y.,.) n , A M A f , 2 # O O ",
". + & w M ) X.Y , 6 F j.wXsXsXhX,X,X_._._._._.`.&XR.T.n.3._ i y k f _ &.a.A.&X@XqX8X8XjXcXvXvXfX;X*XD.2.B q 8 b T ) ) M > & O O ",
". + * 0 T o.o.) V c F oXwXvXgXgXhX>X`.`.`.>X'.].<X X^.Z.[ g 5 < < t g { l.*X;X:XiXuXjXzXxXmXnXfXaX*XL.n.Z F c V ) O.o.T p * + . ",
". + * , U @.@.h.g.G c.eXrXfXgXgX5X5X'.'.].'.]..X X}.*XZ.[ j < < < < j k.=X;XaXgXiXjXkXzXxXxXmXfX4X1X*X&XOXj.j.k.h.%.@.T > * + . ",
". + * > U +.0.l.+XwXeXsXhXaX4X4X5X<X.X.X.X[.[.[.}.1X~.Z.{ j 5 < < < S k.=XfXfXbXlXkX0X0XzXxXlXsX3X1X1X*XrXwXwXj.h.i.@.U > * + . ",
". + * > U +.p.=XrXsXvXfXaX1X2X2X|. X X X*X(.(.(.(.(.W.a.' j r < < r S j.wXvXnXmXlXkX9X9X9XkXiXiX5X2X1X3XhXdXdXrX=Xa.o.U > * + . ",
". + * > I o.l.#XtXfXfXfX3X1X/./././.}.(.*XU.~.U.~.~.I.a.&.L y r r i S k.rXdXvXmXcXuXuX8X8X8XiX,X:X*X1X3XgXfXfXtX-Xl.o.U > * + . ",
". + * > I 7.i.l.tXtXaXtX;X!.).).).).W.W.U.U.U.U.U.K.A.i.O.~ P J K K } k.yXtXsXrXwXqXqX7XqXqXqX@X&X&X*X;XaXtXtXtX#Xi.+.U > * + . ",
". + & > U $.w.l.#X-X-X%X%XH.B.B.B.B.B.B.d.d.d.d.d.d.u.i.%.o.......~ &.h.l.=X=X=X+X+XXXOXOXOXXXXXZ.D.B.%X%X-X-X#Xl.t.$.U 0 * + . ",
". + & 0 T o.7.q.i.l.p.i.i.q.q.q.q.q.q.q.w.w.q.q.q.w.i.7.#.%.%.+.7.+.7.i.i.p.l.l.i.h.4.4.i.h.4.i.i.q.e.i.p.p.p.i.i.7.+.Y 0 * + . ",
"O + & w M X.7.7.#.+.#.7.#.%.@.%.#.+.#.%.+.+.+.+.%.%.%.+.%.+.+.+.+.7.+.7.+.+.+.7.+.%.%.%.%.+.+.%.+.+.%.@.#.#.#.#.7.+.X.M w & + . ",
". + & 8 f P  . .| W W I | W ~ | W W W ~ ..~ ~ ..~ ~ ~ ..........~ ~ ~ ~ W W ~ | | | | | | | | | | ~ ~ W W  .W | |  .R f 8 & + . ",
"O + @ 4 7 d L K J J J K K K K K K K K K K K K K K K K L K P P P K P K K K K K J K J J J J J J J K K K J J J J J J J f u 4 @ + O ",
"O + @ 2 7 u i i i i y i i y i y i y i y y y y i y y i i y y y y i i i i i i y i i i y y i i y i y y i i y i y y i y u 6 % @ + O ",
"O + @ % 6 5 t t r r r r t t r r t t r r y t t t t t t t t t t t r r r r t r r r r r r r t t t t t t r t t t t t y t r 3 % @ + O ",
"O + @ % 6 u i i i i i y i i y y i i y y y i y y y y i y y y y y i i i i i i i i i i i y i y y y y y y i y y y i i y u 6 2 @ + O ",
"O + @ 2 7 a s K K s K s s s s s s s s s s s s s s s s s s s s s s s s h s s s K s s s s s s s s s s s s K K K K K h a 7 2 @ O O ",
"O + $ 2 p f J R P P P P P P P P P P P L P P L P P P P P L P P P P P P P P P P P P P P L P L P P P L P P P P P P P P a p 2 & + O ",
"O + @ 2 u d P I ! ! I I ! I I I ! I ! P R R I ! I I I ! ! ! P ! P I P ! P ! P ! I ! I ! ! R R R I I I I ! P ! ! P P K p 2 @ + O ",
"O @ @ 2 0 a K P I I ! ! ! ! ! ! ! ! ! ! ! ! ! ! ! ! ! ! ! ! ! ! ! ! ! ! ! ! ! ! ! ! ! ! ! ! ! ! ~ ! ! ! ! ! P P P K a 7 2 & + . ",
"O O @ 2 6 t i K P ! ! ! ! ~ ! ! ! ! ! ! ! ! ! ! ! ! ! ! ! ! ! ! ! ~ ! ! ! ! ! ! ! ! ! ! ! ! ! ! ! I ! ! ~ ! P P J a u 7 4 @ + O ",
"O + @ % 3 u y s K P P ! I P I ! P ! ! R R R R R I I ! P P ! P ! I I P I ! P P ! I I I I R R R R ! I P ! ! P P K a y u 3 $ @ + O ",
"O + @ % 3 5 t i K L P P P P P P P P P P P P P P P P P P P P P P P P P P L P P P P P I P P P P P P P P P P P L K i t 5 1 % X O O ",
"O + @ $ 3 < t y i s K K K K K K s K K K s K K K K K K K K K K K K K K K K K K K K K K K K s K K K K K K K K s i y r 5 3 % @ + O ",
"O O @ % 1 5 r t y i j i i i i i i i i j i i i i i i i i i i i j i i j i i i i i j i i i i i i i i i i i i i i i t r 5 3 $ @ + O ",
"O X @ $ 1 5 r r t r t t t t t y t r t r t y r r t t t t t t t r t y t t t t t t r r t t t t t t t t t t y r r t r r 5 3 o @ + O ",
"O + @ $ 3 1 5 5 5 5 5 5 5 5 5 5 5 5 5 5 5 5 5 5 5 5 5 5 5 5 5 5 5 5 5 5 5 5 5 5 5 5 5 5 5 5 5 5 5 5 5 5 5 5 5 5 5 5 6 3 $ @ + O ",
"O + @ @ % 4 3 3 1 1 1 3 3 3 3 3 3 3 1 3 3 3 3 3 3 3 3 3 3 3 3 1 1 1 3 3 3 3 3 3 3 3 3 1 3 3 3 3 3 3 3 3 3 1 3 1 1 1 3 o @ @ + + ",
"+ O @ @ @ $ o % % % $ $ $ $ $ $ $ $ $ $ o $ $ $ $ $ $ $ $ $ $ $ $ $ $ $ $ $ $ $ $ $ $ % $ $ $ $ $ $ $ $ $ $ $ $ $ o $ @ @ + O + ",
"+ + + + @ @ @ @ @ X @ @ @ X @ @ @ @ @ @ @ @ @ @ @ @ @ @ @ @ X @ @ @ @ @ @ @ @ @ @ @ X @ @ @ @ @ @ @ @ @ @ @ @ @ @ @ @ @ + X + + ",
"+ + O + + + + + + + + + + + + + + + + + + + + + + + @ O + + + + + + + + + O + X + + + + + + + + + + X O + + + + + + + + + + + O ",
"O + + + O O O O O O O O O O O O O O O O O O O O O O O O O O O O O O O O O O O O O O O O O O O O O O O O O O O O O O O + O + + + "
};
