/* XPM */
static char *result[] = {
/* columns rows colors chars-per-pixel */
"64 64 171 2 ",
"   c #222222",
".  c #212222",
"X  c gray13",
"o  c #202121",
"O  c #202021",
"+  c #1F2020",
"@  c #1E2020",
"#  c #252424",
"$  c #302B2B",
"%  c #3B3232",
"&  c #423736",
"*  c #2F2A2A",
"=  c #393131",
"-  c #433737",
";  c #483B3A",
":  c #493C3B",
">  c #383130",
",  c #2D2929",
"<  c #262424",
"1  c #2E2A2A",
"2  c #3A3231",
"3  c #202020",
"4  c #1E1F20",
"5  c #1E1F1F",
"6  c #1D1F1F",
"7  c #272625",
"8  c #312C2C",
"9  c #3C3332",
"0  c #433837",
"q  c #212122",
"w  c #282625",
"e  c #282626",
"r  c #3B3231",
"t  c #232222",
"y  c #242323",
"u  c #262525",
"i  c #272525",
"p  c #2C2828",
"a  c #342E2D",
"s  c #3D3433",
"d  c #332D2D",
"f  c #443837",
"g  c #3B3332",
"h  c #322D2C",
"j  c #2C2928",
"k  c #3C3333",
"l  c #262524",
"z  c #2A2727",
"x  c #2B2828",
"c  c #2D2928",
"v  c #2D2A29",
"b  c #2E2A29",
"n  c #232323",
"m  c #2F2B2A",
"M  c #403635",
"N  c #453938",
"B  c #3F3534",
"V  c #493B3A",
"C  c #3E3534",
"Z  c #383030",
"A  c #443938",
"S  c #2F2B2B",
"D  c #322C2C",
"F  c #362F2E",
"G  c #3E3533",
"H  c #403634",
"J  c #413735",
"K  c #292727",
"L  c #362F2F",
"P  c #463A39",
"I  c #3A3131",
"U  c #393130",
"Y  c #453937",
"T  c #4C3F3C",
"R  c #53433F",
"E  c #564641",
"W  c #584742",
"Q  c #473B3A",
"!  c #473A3A",
"~  c #413736",
"^  c #413636",
"/  c #524240",
"(  c #5D4A46",
")  c #66504B",
"_  c #6B544E",
"`  c #6D564F",
"'  c #473A39",
"]  c #4E3F3E",
"[  c #5A4744",
"{  c #705751",
"}  c #765B55",
"|  c #795E56",
" . c #403535",
".. c #4A3C3B",
"X. c #50413F",
"o. c #5C4946",
"O. c #69524D",
"+. c #735953",
"@. c #7A5E57",
"#. c #7D6058",
"$. c #3F3535",
"%. c #50403E",
"&. c #5B4945",
"*. c #68524D",
"=. c #795D56",
"-. c #7C5F58",
";. c #4F403E",
":. c #5A4844",
">. c #67514C",
",. c #715852",
"<. c #775C55",
"1. c #715851",
"2. c #4A3D3C",
"3. c #4A3D3B",
"4. c #67504C",
"5. c #5A4845",
"6. c #725852",
"7. c #785D56",
"8. c #7B5F57",
"9. c #5B4845",
"0. c #725952",
"q. c #7B5F58",
"w. c #4E403E",
"e. c #765C55",
"r. c #4E3F3D",
"t. c #574643",
"y. c #624D49",
"u. c #4C3E3C",
"i. c #534340",
"p. c #614C48",
"a. c #644F4A",
"s. c #554442",
"d. c #584743",
"f. c #4B3D3B",
"g. c #4C3E3D",
"h. c #574542",
"j. c #594744",
"k. c #544341",
"l. c #5C4945",
"z. c #68514C",
"x. c #6B534E",
"c. c #7A5E56",
"v. c #584643",
"b. c #534341",
"n. c #574543",
"m. c #4D3F3D",
"M. c #453939",
"N. c #242324",
"B. c #373030",
"V. c #393230",
"C. c #50403F",
"Z. c #544441",
"A. c #5E4A47",
"S. c #433836",
"D. c #463A38",
"F. c #4B3E3B",
"G. c #51423F",
"H. c #654F4B",
"J. c #6D554F",
"K. c #594843",
"L. c #5B4944",
"P. c #5E4B46",
"I. c #614D48",
"U. c #654F4A",
"Y. c #66504C",
"T. c #755A54",
"R. c #6C544E",
"E. c #6C554F",
"W. c #6F5650",
"Q. c #634E4A",
"!. c white",
/* pixels */
"      . X o O + @ o # $ % & & % $ # o @ + O o o o o O + @ o # * = - ; : : ; ; : : ; & > , < < 1 2 & & % $ # o + + O 3 + 4 5 6 6 ",
"              . X   7 8 9 0 0 9 8 7   X q             q X   7 $ 2 0 ; : : ; ; : : ; 0 = * w e $ r - 0 9 8 7   X q           t t ",
"    t y # u i u u 7 p a s 0 0 s a p 7 u u i i i i i i u u 7 p d 9 f ; : : ; ; : : ; 0 g h p j d k 0 0 s a p i l u i e z x c v b ",
"o X n u z v m m m $ d = M N N M = d $ * * m m m m m m * * $ d > B N ; : V ; ; V : ; N C Z d d > B A N M = d S 1 1 m D F 2 G H J ",
"+ X y K $ L = 2 2 2 g B 0 P P 0 B g I U = = = = = = = = U I g B 0 P ; V ; ; ; ; V ; P & C 9 9 B 0 P P 0 B g = > Z 2 s Y T R E W ",
"o   i b L C - f 0 0 0 N P Q Q P N 0 0 - - 0 0 0 0 0 0 - - 0 0 N P Q ; ; ; ; ; ; ; ; Q P A 0 0 N P ! Q P N 0 - ~ ^ 0 ; / ( ) _ ` ",
"# 7 p d g 0 ; : V ; ; ; ; ; ; ; ; ; ; ; ; ; ; ; ; ; ; ; ; ; ; ; ; ; ; ; ; ; ; ; ; ; ; ; ; ; ; ; ; ; ; ; ; ; ; ' P ; ] [ ) { } | ",
"1 $ d U  .P : ....: : : ; ; ; ; : : : : : : : : : : : : : : : : ; ; ; ; ; ; ; ; ; ; ; V : : : : ; ; ; ; : : : ; ; ..X.o.O.+.@.#.",
"= 2 9 $.0 ' : ..: : : V ; ; ; ; V : : : : : : : : : : : : : : V ; ; ; ; ; ; ; ; ; ; ; ; V : : V ; ; ; ; V : : ; ! : %.&.*.+.=.-.",
"- 0 f N P Q ; ; ; ; ; ; ; ; ; ; ; ; ; ; ; ; ; ; ; ; ; ; ; ; ; ; ; ; ; ; ; ; ; ; ; ; ; ; ; ; ; ; ; ; ; ; ; ; ; ' ' ; ;.:.>.,.<.@.",
"; ; ; ; ; ; ; ; ; ; ; ; ; ; ; ; ; ; ; ; ; ; ; ; ; ; ; ; ; ; ; ; ; ; ; ; ; ; ; ; ; ; ; ; ; ; ; ; ; ; ; ; ; ; ; ' P ; ;.:.) 1.<.@.",
"2.3.....: ; ; ; ; ; ; ; ; ; ; ; ; ; ; ; ; ; ; ; ; ; ; ; ; ; ; ; ; ; ; ; ; ; ; ; ; ; ; ; ; ; ; ; ; ; ; ; ; ; ; ' P ; ;.:.) 1.<.@.",
"2.3.....: ; ; ; ; ; ; ; ; ; ; ; ; ; ; ; ; ; ; ; ; ; ; ; ; ; ; ; ; ; ; ; ; ; ; ; ; ; ; ; ; ; ; ; ; ; ; ; ; ; ; ' P ; ;.:.) 1.<.@.",
"; ; ; ; ; ; ; ; ; ; ; ; ; ; ; ; ; ; ; ; ; ; ; ; ; ; ; ; ; ; ; ; ; ; ; ; ; ; ; ; ; ; ; ; ; ; ; ; ; ; ; ; ; ; ; ' P ; ;.:.) 1.<.@.",
"& 0 0 N P Q ; ; ; ; ; ; ; ; ; ; ; ; ; ; ; ; ; ; ; ; ; ; ; ; ; ; ; ; ; ; ; ; ; ; ; ; ; ; ; ; ; ; ; ; ; ; ; ; ; ' P ; ;.:.) 1.<.@.",
"> = g C & P ; V ; ; ; ; ; ; ; ; ; ; ; ; ; ; ; ; ; ; ; ; ; ; ; ; ; ; ; ; ; ; ; ; ; ; ; ; ; ; ; ; ; ; ; ; ; ; ; ' P ; ;.:.) 1.<.@.",
", * h Z C A ; : V ; ; ; ; ; ; ; ; ; ; ; ; ; ; ; ; ; ; ; ; ; ; ; ; ; ; ; ; ; ; ; ; ; ; ; ; ; ; ; ; ; ; ; ; ; ; ' P ; ;.:.) 1.<.@.",
"< w p d 9 0 ; : : ; ; ; ; ; ; ; ; ; ; ; ; ; ; ; ; ; ; ; ; ; ; ; ; ; ; ; ; ; ; ; ; ; ; ; ; ; ; ; ; ; ; ; ; ; ; ' P ; ;.:.) 1.<.@.",
"< e j d 9 0 ; : : ; ; ; ; ; ; ; ; ; ; ; ; ; ; ; ; ; ; ; ; ; ; ; ; ; ; ; ; ; ; ; ; ; ; ; ; ; ; ; ; ; ; ; ; ; ; ' P ; ;.:.4.1.<.@.",
"1 $ d > B N ; : V ; ; ; ; ; ; ; ; ; ; ; ; ; ; ; ; ; ; ; ; ; ; ; ; ; ; ; ; ; ; ; ; ; ; ; ; ; ; ; ; ; ; ; ; ; ; ' P ; ;.5.>.6.7.8.",
"2 r k B 0 P ; ; ; ; ; ; ; ; ; ; ; ; ; ; ; ; ; ; ; ; ; ; ; ; ; ; ; ; ; ; ; ; ; ; ; ; ; ; ; ; ; ; ; ; ; ; ; ; ; ' P ; ;.9.>.0.7.q.",
"& - 0 A P ! ; ; ; ; ; ; ; ; ; ; ; ; ; ; ; ; ; ; ; ; ; ; ; ; ; ; ; ; ; ; ; ; ; ; ; ; ; ; ; ; ; ; ; ; ; ; ; ; ; ' P ; w.:.) { e.| ",
"& 0 0 N P Q ; ; ; ; ; ; ; ; ; ; ; ; ; ; ; ; ; ; ; ; ; ; ; ; ; ; ; ; ; ; ; ; ; ; ; ; ; ; ; ; ; ; ; ; ; ; ; ; ; ' ' ; r.t.y._ { +.",
"% 9 s M 0 P ; ; ; ; ; ; ; ; ; ; ; ; ; ; ; ; ; ; ; ; ; ; ; ; ; ; ; ; ; ; ; ; ; ; ; ; ; ; ; ; ; ; ; ; ; ; ; ; ; ! ' ; u.i.5.p.a.) ",
"$ 8 a = B N ; : V ; ; ; ; ; ; ; ; ; ; ; ; ; ; ; ; ; ; ; ; ; ; ; ; ; ; ; ; ; ; ; ; ; ; ; ; ; ; ; ; ; ; ; ; ; ; ; Q ; 3.r./ s.t.d.",
"# 7 p d g 0 ; : : ; ; ; ; ; ; ; ; ; ; ; ; ; ; ; ; ; ; ; ; ; ; ; ; ; ; ; ; ; ; ; ; ; ; ; ; ; ; ; ; ; ; ; ; ; ; ; ; ; : f.u.r.;.;.",
"o   7 $ I 0 ; : : ; ; ; ; ; ; ; ; ; ; ; ; ; ; ; ; ; ; ; ; ; ; ; ; ; ; ; ; ; ; ; ; ; ; ; ; ; ; ; ; ; ; ; ; ; ; ; ; ; : f.g.r.;.;.",
"@ X u * U - ; : : ; ; ; ; ; ; ; ; ; ; ; ; ; ; ; ; ; ; ; ; ; ; ; ; ; ; ; ; ; ; ; ; ; ; ; ; ; ; ; ; ; ; ; ; ; ; ; Q ; 3.w.i.h.j.[ ",
"+ q u * = - ; : : ; ; ; ; ; ; ; ; ; ; ; ; ; ; ; ; ; ; ; ; ; ; ; ; ; ; ; ; ; ; ; ; ; ; ; ; ; ; ; ; ; ; ; ; ; ; ! ' ; u.k.l.y.) z.",
"O   i m = 0 ; : : ; ; ; ; ; ; ; ; ; ; ; ; ; ; ; ; ; ; ; ; ; ; ; ; ; ; ; ; ; ; ; ; ; ; ; ; ; ; ; ; ; ; ; ; ; ; ' ' ; r.t.y.x.{ 0.",
"O   i m = 0 ; : : ; ; ; ; ; ; ; ; ; ; ; ; ; ; ; ; ; ; ; ; ; ; ; ; ; ; ; ; ; ; ; ; ; ; ; ; ; ; ; ; ; ; ; ; ; ; ' ' ; r.t.y.x.{ 0.",
"+ q u * = - ; : : ; ; ; ; ; ; ; ; ; ; ; ; ; ; ; ; ; ; ; ; ; ; ; ; ; ; ; ; ; ; ; ; ; ; ; ; ; ; ; ; ; ; ; ; ; ; ! ' ; u.k.l.y.) z.",
"@ X u * U - ; : : ; ; ; ; ; ; ; ; ; ; ; ; ; ; ; ; ; ; ; ; ; ; ; ; ; ; ; ; ; ; ; ; ; ; ; ; ; ; ; ; ; ; ; ; ; ; ; Q ; 3.w.i.h.j.[ ",
"o   7 $ I 0 ; : : ; ; ; ; ; ; ; ; ; ; ; ; ; ; ; ; ; ; ; ; ; ; ; ; ; ; ; ; ; ; ; ; ; ; ; ; ; ; ; ; ; ; ; ; ; ; ; ; ; : f.g.r.;.;.",
"# 7 p d g 0 ; : : ; ; ; ; ; ; ; ; ; ; ; ; ; ; ; ; ; ; ; ; ; ; ; ; ; ; ; ; ; ; ; ; ; ; ; ; ; ; ; ; ; ; ; ; ; ; ; ; ; : f.u.r.;.;.",
"* $ d > B N ; : V ; ; ; ; ; ; ; ; ; ; ; ; ; ; ; ; ; ; ; ; ; ; ; ; ; ; ; ; ; ; ; ; ; ; ; ; ; ; ; ; ; ; ; ; ; ; ; Q ; 3.r./ s.t.d.",
"= 2 9 B 0 P ; ; ; ; ; ; ; ; ; ; ; ; ; ; ; ; ; ; ; ; ; ; ; ; ; ; ; ; ; ; ; ; ; ; ; ; ; ; ; ; ; ; ; ; ; ; ; ; ; ! ' ; u.i.5.p.a.) ",
"- 0 f N P Q ; ; ; ; ; ; ; ; ; ; ; ; ; ; ; ; ; ; ; ; ; ; ; ; ; ; ; ; ; ; ; ; ; ; ; ; ; ; ; ; ; ; ; ; ; ; ; ; ; ' ' ; r.t.y._ { +.",
"; ; ; ; ; ; ; ; ; ; ; ; ; ; ; ; ; ; ; ; ; ; ; ; ; ; ; ; ; ; ; ; ; ; ; ; ; ; ; ; ; ; ; ; ; ; ; ; ; ; ; ; ; ; ; ' P ; ;.:.) 1.<.c.",
"2.3.....: ; ; ; ; ; ; ; ; ; ; ; ; ; ; ; ; ; ; ; ; ; ; ; ; ; ; ; ; ; ; ; ; ; ; ; ; ; ; ; ; ; ; ; ; ; ; ; ; ; ; ' P ; ;.9.*.+.c.#.",
"2.3.....: ; ; ; ; ; ; ; ; ; ; ; ; ; ; ; ; ; ; ; ; ; ; ; ; ; ; ; ; ; ; ; ; ; ; ; ; ; ; ; ; ; ; ; ; ; ; ; ; ; ; ' P ; ;.9.*.+.c.#.",
"; ; ; ; ; ; ; ; ; ; ; ; ; ; ; ; ; ; ; ; ; ; ; ; ; ; ; ; ; ; ; ; ; ; ; ; ; ; ; ; ; ; ; ; ; ; ; ; ; ; ; ; ; ; ; ' P ; ;.:.) 1.<.c.",
"- 0 f N P Q ; ; ; ; ; ; ; ; ; ; ; ; ; ; ; ; ; ; ; ; ; ; ; ; ; ; ; ; ; ; ; ; ; ; ; ; ; ; ; ; ; ; ; ; ; ; ; ; ; ' ' ; r.v.y._ { +.",
"= 2 9 B 0 P ; ; ; ; ; ; ; ; ; ; ; ; ; ; ; ; ; ; ; ; ; ; ; ; ; ; ; ; ; ; ; ; ; ; ; ; ; ; ; ; ; ; ; ; ; ; ; ; ; ! ' ; u.b.&.y.) >.",
"* $ d > B N ; : V ; ; ; ; ; ; ; ; ; ; ; ; ; ; ; ; ; ; ; ; ; ; ; ; ; ; ; ; ; ; ; ; ; ; ; ; ; ; ; ; ; ; ; ; ; ; ; Q ; 3.;.i.n.j.:.",
"# 7 p d g 0 ; : : ; ; ; ; ; ; ; ; ; ; ; ; ; ; ; ; ; ; ; ; ; ; ; ; ; ; ; ; ; ; ; ; ; ; ; ; ; ; ; ; ; ; ; ; ; ; ; ; ; : 3.u.m.] ;.",
"o   7 $ I 0 ; : : ; ; ; ; ; ; ; ; ; ; ; ; ; ; ; ; ; ; ; ; ; ; ; ; ; ; ; ; ; ; ; ; ; ; ; ; ; ; ; ; ; ; ; ; ; ; ; ; ; ; ; ; ; ; ; ",
"@ X u * U - ; : : ; ; ; ; ; ; ; ; ; ; ; ; ; ; ; ; ; ; ; ; ; ; ; ; ; ; ; ; ; ; ; ; ; ; ; ; ; ; ; ; ; ; ; ; ; ; ; ; ; ; ' P M.N N ",
"+ q u * = - ; : : ; ; ; ; ; ; ; ; ; ; ; ; ; ; ; ; ; ; ; ; ; ; ; ; ; ; ; ; ; ; ; ; ; ; ; ; ; ; ; ; ; ; ; ; ; ; ; ; ; ; ' P M.N N ",
"O   i m = 0 ; : : ; ; ; ; ; ; ; ; ; ; ; ; ; ; ; ; ; ; ; ; ; ; ; ; ; ; ; ; ; ; ; ; ; ; ; ; ; ; ; ; ; ; ; ; ; ; ; ; ; ; ; ; ; ; ; ",
"o   i m = 0 ; : : ; ; ; ; ; ; ; ; ; ; ; ; ; ; ; ; ; ; ; ; ; ; ; ; ; ; ; ; ; ; ; ; ; ; ; ; ; ; ; ; ; ; ; ; ; ; ; ; ; : 3.u.m.] ;.",
"o   i m = 0 ; : : ; ; ; ; ; ; ; ; ; ; ; ; ; ; ; ; ; ; ; ; ; ; ; ; ; ; ; ; ; ; ; ; ; ; ; ; ; ; ; ; ; ; ; ; ; ; ; Q ; 3.;.i.n.j.:.",
"o   i m = 0 ; : : ; ; ; ; ; ; ; ; ; ; ; ; ; ; ; ; ; ; ; ; ; ; ; ; ; ; ; ; ; ; ; ; ; ; ; ; ; ; ; ; ; ; ; ; ; ; ! ' ; u.b.&.y.) >.",
"o   i m = 0 ; : : ; ; ; ; ; ; ; ; ; ; ; ; ; ; ; ; ; ; ; ; ; ; ; ; ; ; ; ; ; ; ; ; ; ; ; ; ; ; ; ; ; ; ; ; ; ; ' ' ; r.v.y._ { +.",
"+   i m = - ; : : ; ; ; ; ; ; ; ; ; ; ; ; ; ; ; ; ; ; ; ; ; ; ; ; ; ; ; ; ; ; ; ; ; ; ; ; ; ; ; ; ; ; ; ; ; ; ' P ; ] [ ) { e.| ",
"5 o # b Z ~ ' ; ; ' ' ! ; ; ; ; ; ; ; ; ! ' ' ! ; ; ; ; ! ' ' ' ' ' ' ' ' ' ' ' ' ' ' ! ; ; ; ; ! ' ' ' ' ' ' M.N ' r.:.>.6.7.q.",
"6 + N., B.^ P ; ! ' ' ' Q ; ; ; ; ; ; Q ' ' ' ' Q ; ; Q ' ' P P P P P P P P P P P P ' ' Q ; ; Q ' ' P P P P P N N ' m.j.4.,.7.8.",
"o t e $ 2 0 ; ..: ; ; ; ; ; ; ; ; ; ; ; ; ; ; ; ; ; ; ; ; ; ; ; ; ; ; ; ; ; ; ; ; ; ; ; ; ; ; ; ; ; ; ; ; ; ; ' ' ; ;.:.4.1.<.@.",
"j b h V.& 3.] C.%.;.r.u.3.: ; ; ; ; : f.g.r.r.u.3.: : 3.u.r.w.;.;.;.;.;.;.;.;.;.;.w.r.u.3.: : 3.u.r.w.;.;.;.] m.m.;.Z.A.O.6.<.| ",
"J S.D.F.G.h.:.9.9.:.v.b.;.3.; ' ' ; f.;.k.t.t.k.w.f.f.r.i.t.:.9.5.:.:.:.:.:.:.5.9.:.t.i.r.f.f.r.i.t.:.9.5.:.:.j.j.:.A.H.J.+.<.=.",
"W K.L.P.I.U.) z.z.) y.&.i.u.; P P ; u.k.o.y.y.l.i.g.u./ 5.y.) >.>.4.) ) ) ) 4.>.>.) y.5./ u.u./ 5.y.) >.>.4.) ) ) Y.O.J.,.T.<.7.",
"_ R.E.J.W.{ 1.6.0.{ _ y.n.m.; M.M.; r.v.Q._ x.y.h.r.r.s.p._ { 0.6.1.1.1.1.1.1.6.0.{ _ p.s.r.r.s.p._ { 0.6.1.1.{ { 1.6.+.T.} <.<.",
"e.e.<.<.<.<.<.7.7.e.{ ) j.] ; N N ; ;.5.>.{ { ) j.;.;.t.a.{ e.7.7.<.<.<.<.<.<.7.7.e.{ a.t.;.;.t.a.{ e.7.7.<.<.<.<.<.<.<.<.<.<.<.",
"-.-.q.8.@.@.@.8.8.| +.>.:.;.; N N ; ;.&.O.+.0.z.[ ;.;.d.) +.| q.8.@.@.@.@.@.@.8.q.| +.) d.;.;.d.) +.| q.8.@.@.@.@.c.| =.7.<.<.<."
};
