/* XPM */
static char *result[] = {
/* columns rows colors chars-per-pixel */
"64 64 175 2 ",
"   c #0E1112",
".  c #131314",
"X  c #1C1415",
"o  c #1B1618",
"O  c #171819",
"+  c #1B1C1C",
"@  c #241617",
"#  c #261915",
"$  c #2D1B16",
"%  c #221418",
"&  c #221D1D",
"*  c #2A1C1A",
"=  c #281718",
"-  c #301C17",
";  c #321D1A",
":  c #3D1E1D",
">  c #25201F",
",  c #32221D",
"<  c #39251F",
"1  c #1E1F20",
"2  c #2C1E21",
"3  c #311F21",
"4  c #3D1A22",
"5  c #1F2020",
"6  c #232323",
"7  c #292626",
"8  c #2C2927",
"9  c #292728",
"0  c #242C2C",
"q  c #2C2928",
"w  c #332323",
"e  c #392621",
"r  c #3C2923",
"t  c #332D2C",
"y  c #37302F",
"u  c #38312F",
"i  c #373030",
"p  c #3D3433",
"a  c #3F3935",
"s  c #3F3C39",
"d  c #48261B",
"f  c #592C1E",
"g  c #572B1E",
"h  c #4D1E27",
"j  c #4C1D28",
"k  c #411E25",
"l  c #501F28",
"z  c #4B2B26",
"x  c #442328",
"c  c #552326",
"v  c #582427",
"b  c #5C2E21",
"n  c #52212B",
"m  c #5A262A",
"M  c #5C282B",
"N  c #502E26",
"B  c #5E3023",
"V  c #533025",
"C  c #413635",
"Z  c #433A37",
"A  c #463C39",
"S  c #493C3B",
"D  c #672F24",
"F  c #682F24",
"G  c #65242F",
"H  c #64292C",
"J  c #6E2A2E",
"K  c #732D2E",
"L  c #6E3323",
"P  c #6E3428",
"I  c #623326",
"U  c #713523",
"Y  c #763927",
"T  c #7B3925",
"R  c #76322C",
"E  c #7B322D",
"W  c #7D3B28",
"Q  c #783724",
"!  c #632330",
"~  c #692630",
"^  c #4C423E",
"/  c #47423D",
"(  c #52433F",
")  c #2E4342",
"_  c #304442",
"`  c #344D4B",
"'  c #3C4E4D",
"]  c #35504E",
"[  c #3E504E",
"{  c #3E5250",
"}  c #454543",
"|  c #4B4642",
" . c #4C4943",
".. c #554442",
"X. c #594743",
"o. c #524943",
"O. c #5B4A45",
"+. c #5E4D48",
"@. c #405452",
"#. c #4E5351",
"$. c #525553",
"%. c #535855",
"&. c #5B5956",
"*. c #5C5048",
"=. c #614D47",
"-. c #634E49",
";. c #64514B",
":. c #6A534D",
">. c #62584F",
",. c #6F5650",
"<. c #635B53",
"1. c #6D5D52",
"2. c #705751",
"3. c #715A52",
"4. c #6D645B",
"5. c #746256",
"6. c #776559",
"7. c #786358",
"8. c #477471",
"9. c #627B77",
"0. c #787471",
"q. c #82362C",
"w. c #863A2B",
"e. c #8A3C2B",
"r. c #8F402A",
"t. c #924129",
"y. c #8B7466",
"u. c #8D7768",
"i. c #8F7868",
"p. c #867366",
"a. c #947B6C",
"s. c #997E6F",
"d. c #897E71",
"f. c #8C7769",
"g. c #8D8073",
"h. c #958677",
"j. c #AB8D7A",
"k. c #A28674",
"l. c #AE917E",
"z. c #B0927E",
"x. c #4F8A86",
"c. c #4E8C88",
"v. c #508C87",
"b. c #518C88",
"n. c #5EACA6",
"m. c #5EAFA9",
"M. c #61AFA9",
"N. c #60ADA7",
"B. c #60B1AA",
"V. c #7AB5AE",
"C. c #66BCB5",
"Z. c #7EB9B2",
"A. c #70BFB8",
"S. c #71D4CC",
"D. c #AC9C8A",
"F. c #A69382",
"G. c #B39682",
"H. c #B69A86",
"J. c #B39D8A",
"K. c #BA9E89",
"L. c #A39F99",
"P. c #B5A492",
"I. c #B3AEA8",
"U. c #C5AD98",
"Y. c #C9B19C",
"T. c #D1BAA4",
"R. c #CDB6A0",
"E. c #B5C4BC",
"W. c #DBC6AF",
"Q. c #DEC9B1",
"!. c #8CD9D1",
"~. c #BBD0C8",
"^. c #CFCAC2",
"/. c #D1CCC4",
"(. c None",
/* pixels */
"(.(.(.(.O a p.l.l.p.y / D.Q.W.W.W.D. .+ + 6 6 6 > 5 5 5 6 5 6 6 5 5 5 5 5 5 6 6 6 1 5 + +  .D.Q.Q.D.} p p.j.j.j.j.p.a O (.(.(.(.",
"(.(.(.(.a O.i.l.H.h.4.&.g.D.D.D.D.g.o.t y t 6 6 8 i i u t t 6 7 t y y y y t 6 6 t t i t y o.g.D.P.d.a Z d.J.K.H.l.i.O.p (.(.(.(.",
"(.(.+ p 5.i.k.G.U.Y.P.h.4.^ /  . .o.+.-.-.( t t ( ;.;.;.-...q t ( -.-.;.;.( t t ..-.-.-.-.+.o. .| s 9 / F.R.R.U.G.k.a.5.a 1 (.(.",
"(.(.a *.a.z.H.J.H.D.D.g.| t 8 t t C =.2.3.O.t t O.2.,.,.3.O.t t O.,.,.,.,.O.t t O.2.2.,.,.O.t 5 8 y y o.g.D.D.H.H.H.G.y.Z 1 (.(.",
"+ a 5.a.k.H.Y.J.4.^ | o.O.=.=.=.=.+.X.....A 8 8 A X.......S q q S ........S q q S X.....X.A q 8 ^ ;.-.+.o.| / 4.D.Y.K.i.a + + 5 ",
"a o.5.h.l.K.D.g. .8 t p o.:.:.,.,.;.S p p y q 8 y p a a C y 7 7 i a a a C y 7 7 t a a p C u u Z =.2.2.=.C q t o.g.l.h.6.o.Z a Z ",
"p.5.( >.D.J.4. .O.=.=.X.C p ( ....S y q q q > 6 7 8 q q 9 8 6 7 7 9 q q q q 6 6 q q 8 8 7 u o.-.O.......O.-.-.O.o./ Z ( 6.y.y.p.",
"z.a.>.<.h.g./ t O.2.3.O.t 6 y C p y 6 + + + + & + + + + + + + + + + + + + + 1 + + + + + + 8 ( O.S p p S -.2.,.O.u > + / g.K.z.l.",
"j.l.D.h.<./ C C S X.X.S q 6 7 q 8 > O . . . . . . .   . . . X . . . . . . . . . . . . . . + t y q 9 9 t S X.X.^ Z y 6 / F.Y.H.j.",
"H.J.J.d.s 2 p S S A C y 6 + + + + & > # X . # - - - - $ X . X = $ - - = . X * - $ - - # . X , , 6 + + 6 i p a p p y 9 s g.D.J.H.",
"R.D.4./ 6 6 p S S C t 6 + . . .   $ b f # # f U U U Q f # X : l L U U f # # f U U U U f # = b B $ . . + 6 9 q q 9 6 > q s 4.D.T.",
"W.D.| 5 q p p C C t 6 + . X = $ - d q.U - - U t.t.t.e.U $ % h K e.t.t.U $ - U t.t.r.e.L $ $ U T d $ $ $ & + 6 6 t y u 8 5 s g.J.",
"Q.D.} q ( X.u 7 q 6 O     # f U U T e.U $ $ U t.t.t.t.U $ % h J w.t.t.U $ $ U t.t.e.E c % $ U r.T U U b * O + t ..;.-...8 q s  .",
"D.g.^ y O.-.Z t 6 > $ #   - Q e.e.e.t.U $ $ U t.t.t.t.U $ % h J e.e.e.D = $ U t.t.w.J j % $ L t.t.t.t.U $ . + t ( :.,.+.a 6 6 5 ",
" .| Z C S O.;...t w I f # - U e.R R w.L $ $ U r.r.t.t.U $ % h K e.w.K c @ $ L t.r.w.J h % $ L t.t.t.t.U $ . + q t C S ..A t 6 5 ",
"+ 6 a S S ^ O.( q e T U $ $ U e.J J w.U $ $ U t.t.t.e.U $ @ c R e.e.E c @ $ L t.t.e.J h % $ U r.e.e.e.U $ . O + & 7 p S S a q 6 ",
"1 7 C S S Z p q O , Q U , $ U w.F J w.U $ $ L r.e.e.t.U - $ F e.t.e.e.F $ $ U t.r.w.J j % $ U e.E K e.U -     O + 8 p S S C q 2 ",
"q t C S S C 9 & # d T U $ $ U w.J J w.L $ $ U r.e.e.e.Q $ - U t.t.e.e.F # $ U e.e.E J j % $ U w.J J e.U - . # $ > q p C a t 9 5 ",
"a C S S S a 9 w b T r.U $ $ U w.J J w.L $ $ U e.R K w.U $ $ U t.t.e.R l @ - U e.R J G h % $ L w.J J w.U $ # f I , 6 7 q q 6 5 5 ",
"p p p p C t 6 e Q t.t.U $ $ U w.J J E L = $ L e.R R w.U $ $ L e.t.w.J j % $ U w.J G G h % * P E ~ J w.L $ - U W z 6 6 6 t i i i ",
"7 q 7 q 9 6 O $ U t.t.U * $ L w.~ G ~ c # $ L r.e.e.e.U $ $ U t.t.w.J j % $ U w.J M ! h % @ v J G J w.U $ $ U w.H k 6 t ..;.;.;.",
"y y y t 6 2 * d Q t.t.U $ $ L e.J ! G h % $ U e.w.e.t.U $ $ U t.r.e.J j % $ U w.J G ! h % % h ! J K q.D $ = F q.E M w t X.,.:.:.",
"=.;.;.( t w b W e.t.r.U $ $ L e.J G G h % $ U e.K R w.U $ $ U t.e.w.J h % $ U w.J ! ! h @ % j ~ E q.K c # % c R q.P r q S ..X...",
",.:.:.( 8 w I W r.t.r.U $ $ U e.R ~ ~ x % $ L e.K ~ w.U $ $ U t.e.w.J h % $ U e.R ~ G h % % j K e.e.K j % % j J e.Y r 6 p S A S ",
"..( C 8 6 6 w V W t.t.U $ $ U t.e.E J h % $ U w.J J w.U $ $ U e.t.e.J h % $ U e.e.E J j % % l K w.e.K j % % j J e.R r 9 p S S S ",
"S p 7 0 ) ) 0 w B Y Y f = * b W w.T J h % $ L w.J J w.U - # D e.e.e.J h % $ U e.e.E R v @ X k M F P M x X @ c R q.P r 9 p S S A ",
"S C 7 _ c.c.s & , e < , & & , z G J G h % $ U w.J J w.U - @ c R e.w.K h % - U e.R K q.P $ . 2 w e e w * X $ P q.K M w 9 p S S S ",
"p u > ] B.C.9.#.' { $.$.{ ) 0 w m J G h % $ U w.J J R P # % h J e.w.R c @ - U e.R K U B $ . + 0 _ _ 0 + . = B R K M w 9 i p p a ",
"7 6 & ` m.!.~.~.V.V.E.E.Z.c.) w P E J j % $ U w.J G ~ c @ % h K w.r.e.F = $ U e.e.R N w & o % ) v.v._ o o & w N R P r 6 9 9 9 9 ",
"y 8 6 ` m.!.~.I.V.V.E.E.Z.c.) r U e.J j % $ L w.J G G j % % x K w.r.e.F $ $ U t.t.U e 0 _ ` ` 8.C.C.8.` ` ) 0 e P P r 6 q i p t ",
"-.S r ` M.A.9.#.' ' %.%.@.) 0 r Y e.K j % $ U e.J G ! j % % h J w.e.R c # $ U t.t.T e ) x.N.N.C.S.S.C.M.M.x.) w M M w t ( -.-.-.",
"2.=.t _ b.v.) + + O + O + + + < U e.K j % $ L w.J G ! j % % j J w.e.K c % - U r.e.F e ` m.S.C.N.N.N.M.C.S.m.` 2 c n w t O.2.2.:.",
"..S t 0 _ _ 0 + X     . . . . - U w.K j % $ U w.J ! G h % % h J w.e.e.D # $ U e.R m 3 ] m.C.8.` ` ` ` 8.C.m.` 3 n n w q S X.....",
"S C t 6 6 1 + & = $ # X . . @ d T e.J h % $ L e.J ! G h % % h K w.t.r.U $ $ F q.J l 3 { Z.V.' o o o X ' V.V.{ 2 n n w 9 p S A A ",
"S S C i 6 + O # b F v 4 X # b T e.w.J h % $ U e.J l G h % % h J w.t.t.U $ % c J ~ l 2 %.~.I.%.O o X . $.~.E.$.2 n n w 9 p S S S ",
"p p p p 7 > * d T e.K j % - U t.t.w.J j % $ U e.E J G h % # c R e.r.t.U $ % j G ! j * } L.I.0.%.$.&.$.0.I.L.} 2 l n w 9 i p p p ",
"6 8 8 6 6 w b W e.e.K j % $ U t.t.e.J j % $ U e.e.q.J j @ # F e.e.t.e.U $ % h G ! l @ 6 } 0.I././././.I.0.} 2 % l n w 6 9 9 9 9 ",
"y y y t 9 r P e.e.e.K j % $ U t.e.E K c @ $ L t.e.e.K j X $ U r.t.t.t.L $ % h G ! c : @ . } L././././.L.} . X : l l q 9 t i t i ",
"-.-.-...q w M R e.w.J j % $ U e.K K E L $ $ U t.e.w.J j @ $ L t.t.t.t.U $ % h G ! G U f # 6  .&.&.&.&.| 6 X 4 n ! n w q ..-.-.-.",
",.2.2.X.i 3 l J w.w.J j % $ U e.R R e.L $ $ U t.t.e.R l # $ L r.w.e.e.U $ % h G G J e.U $ . . O O O + .   @ l ! ~ n 3 t X.,.2.,.",
"......S q w n J w.w.J j % $ U e.e.e.t.U $ $ L t.r.r.e.D # $ L e.R R w.U - % h G G K e.U -                 @ l G ! n w q S ......",
"S Z C i 6 2 x H q.e.K j % $ U t.e.e.e.L $ $ L t.t.t.t.L $ $ L w.K ~ w.U $ % h G l K e.U - . # $ - - - = X @ l G ! n w 9 p S S S ",
"S C t 9 6 6 2 z W e.K j % $ U e.K R e.U $ $ L t.t.r.r.U $ $ U w.J J w.U $ % j G ! J e.F - @ f U U U U f @ % h ! ! n w 9 p S S S ",
"C i 6 q ) _ 5 w D F m k X = B U H J e.L $ $ L t.r.t.t.U $ $ U e.J J w.U $ X j G G E e.U $ $ U t.t.t.t.U $ % h ! ! n w 9 i p p p ",
"9 6 6 _ b.c.) & , e 3 & & & w x m J w.U $ $ L t.t.t.r.U $ $ L w.J J w.U $ X j J E e.e.U - $ U t.t.t.t.U $ % j ! ! n q 5 9 9 9 9 ",
"i t 6 ] B.A.9.#.' ' $.%.@._ 0 q c J e.U $ $ U r.t.t.t.U = $ U w.J K w.U $ % h K e.t.t.U $ $ L t.t.t.t.U $ % h ~ ~ m w 9 t i i i ",
"-.( q ] B.!.~.E.V.V.E.E.Z.c.) 2 j K e.U $ $ U r.t.r.r.L $ $ U w.J J w.U $ % j J w.t.t.U $ $ L t.t.t.t.U - % j J q.P e t ..-.=.=.",
"2.X.q ] B.!.~.I.V.V.E.E.Z.c.) 3 l J w.U $ = D e.r.r.t.U $ $ L w.J J w.U - % j J w.e.t.U $ $ L t.r.t.e.U $ o j K e.R e t O.,.,.,.",
"X.Z w ` B.A.9.#.@.@.%.%.@._ 0 w l J e.U $ % c K e.t.t.L $ $ U w.J J w.U $ X j K e.t.e.U $ $ U t.t.t.t.U $ % j K w.Q e q S ......",
"S p 7 _ v.v.) O O X O X o + + 2 n K w.U $ % j J w.r.e.D $ $ U w.J J w.U $ % j J e.t.t.U $ - U t.r.t.r.U - % j J w.Q r 9 p S S A ",
"S C 9 0 _ _ 0 + .       . . . = j K e.U $ % j J w.e.K v @ $ U e.J J w.U - % h J w.e.t.U $ $ U e.t.t.t.U - % j K w.T e 9 p S S S ",
"S C y 6 > > w r , - - $ . X # < l K e.U - % j K w.w.K j % - U e.R K e.U $ @ v E e.t.e.U - # F e.r.r.e.F = % j J q.P r 9 i p p p ",
"S S Z i 6 e I Y U Q Q f # # f U ~ K e.U $ % h K e.e.J h % $ U e.e.e.e.Q $ # F e.t.t.t.U $ @ c R e.e.R v @ @ l ~ K M w 6 6 9 9 9 ",
"p p C i 7 w B Q Q U Q f # # f F v v F f = X : c D P m k X @ f U U U Q f # # f U Q U Q f # X : v F L v 4 X % 4 l l x 6 6 t i y y ",
"6 q 8 6 6 > * $ - - - $ . X $ - # = $ # X   # # $ $ @ o . . # - - - - # X . # $ - - - # X   X # $ $ # X . . % % @ % 2 t ..-.-.-.",
"i y y t 6 2 O   .     .   . .   . . . . . . . .     . . . X . .   .   . . . . . . .   . . . . . . . . . . .   .   O + t X.2.,.2.",
"-.-.-...8 1 + + + + + + + + O + O + + 5 + + X O O O O + 1 + + + + + + + + + + + + + + + + + + + 1 + + + + + + + + + + q S ......",
"2.:.2.=.A t 6 7 p A A A A A A A / u > 6 u / / A / / / y 6 6 p Z Z Z A A Z p 6 9 u A / Z Z / / u 6 6 a Z A A A A S p q q a S S A ",
"......X.-.( 8 p 5.u.u.u.u.y.y.u.y.1.t 8 1.y.y.y.y.y.y.1.t 8 1.a.u.u.u.u.i.1.8 t 2.i.i.p.y.i.i.1.8 8 ,.i.u.y.y.u.u.4.p 9 p S S A ",
"S Z A ( ;.-.Z ^ 6.i.a.a.a.a.a.h.k.5.t 8 5.k.g.s.i.k.k.5.t t 5.a.s.a.a.s.k.5.8 t 5.s.h.a.a.a.i.5.u u 7.s.h.a.a.a.i.6.C q C S S S ",
"S S S S ( O.=.O./ ^ O.;.-.-.;.;.;.^ 8 q ( ;.;.;.=.;.;.( 8 8 ..;.;.;.;.;.=.( 8 8 ^ ;.;.;.;.O.^ a u Z O.;.;.;.-.O.^ A C C Z S S S ",
"p p p C p Z O...t 6 t p p p p p p y q 9 y p p u u C u y q 6 y p p p u p u u 6 q y p p p p y 9 6 u C C u p p p i 6 6 i C C p p p ",
"9 q q 7 q q y t 6 6 6 q 9 9 7 7 8 9 6 6 9 9 9 q q q 8 8 6 6 6 q 6 q q q q 9 6 6 9 q q q 9 6 6 6 9 q q 8 q 7 7 6 6 6 9 9 q 9 q q ",
"6 5 1 2 6 5 1 5 6 6 6 5 1 5 2 6 5 6 6 5 > 5 > 5 5 5 5 > 6 6 6 1 6 6 1 > 1 6 6 6 > 1 1 1 6 6 6 5 > 1 > 1 + 6 6 6 6 6 6 1 6 1 1 2 "
};
