/* XPM */
static char *result[] = {
/* columns rows colors chars-per-pixel */
"64 64 144 2 ",
"   c #1D1F1F",
".  c #1D1F20",
"X  c #361F24",
"o  c #1E2021",
"O  c #232323",
"+  c #2B2424",
"@  c #2B2927",
"#  c #272728",
"$  c #2D2A29",
"%  c #332524",
"&  c #3B2327",
"*  c #352922",
"=  c #392B22",
"-  c #332D2C",
";  c #37302F",
":  c #38312F",
">  c #373030",
",  c #3B3332",
"<  c #471F28",
"1  c #402626",
"2  c #442C24",
"3  c #4B2E25",
"4  c #452129",
"5  c #492129",
"6  c #402A2D",
"7  c #4F292F",
"8  c #53232C",
"9  c #5B242D",
"0  c #572A29",
"q  c #5F2E28",
"w  c #453022",
"e  c #4F3323",
"r  c #433229",
"t  c #533423",
"y  c #5B3523",
"u  c #5D3923",
"i  c #5C3C2A",
"p  c #4F2D32",
"a  c #5F2631",
"s  c #572931",
"d  c #5D2B33",
"f  c #423736",
"g  c #433837",
"h  c #483837",
"j  c #463A39",
"k  c #493C3B",
"l  c #593F36",
"z  c #533B38",
"x  c #5C393B",
"c  c #672C2B",
"v  c #663427",
"b  c #6A3627",
"n  c #623B24",
"m  c #6F3926",
"M  c #743A26",
"N  c #71332A",
"B  c #7E3B28",
"V  c #642B34",
"C  c #663138",
"Z  c #68353B",
"A  c #6D393E",
"S  c #4F403E",
"D  c #52413D",
"F  c #5F453B",
"G  c #6A4028",
"H  c #764224",
"J  c #7D4424",
"K  c #73472E",
"L  c #654435",
"P  c #6F4733",
"I  c #66493E",
"U  c #6B4B3C",
"Y  c #724732",
"T  c #724835",
"R  c #7B4A31",
"E  c #6A3C40",
"W  c #554542",
"Q  c #594743",
"!  c #574846",
"~  c #5B4945",
"^  c #6C4445",
"/  c #624945",
"(  c #6A4846",
")  c #624E49",
"_  c #6C4B49",
"`  c #734848",
"'  c #6D5046",
"]  c #66514C",
"[  c #6B534E",
"{  c #755347",
"}  c #7C5442",
"|  c #73544E",
" . c #785648",
".. c #77594F",
"X. c #7C594C",
"o. c #6E5752",
"O. c #6F5853",
"+. c #715651",
"@. c #745A53",
"#. c #7A5E56",
"$. c #7B5F58",
"%. c #7D6058",
"&. c #823D28",
"*. c #844524",
"=. c #884723",
"-. c #844825",
";. c #8C4A23",
":. c #834A2B",
">. c #8E4F2E",
",. c #904627",
"<. c #914D25",
"1. c #9D4D26",
"2. c #9A5024",
"3. c #9C542C",
"4. c #835137",
"5. c #885237",
"6. c #865238",
"7. c #8B553A",
"8. c #8E593E",
"9. c #915332",
"0. c #9F5B36",
"q. c #905A3F",
"w. c #9F5E3C",
"e. c #A75325",
"r. c #AF5824",
"t. c #A5572B",
"y. c #A4582E",
"u. c #AA5A2E",
"i. c #B05724",
"p. c #B25926",
"a. c #B55C29",
"s. c #A55B33",
"d. c #B05F31",
"f. c #BC612C",
"g. c #AF6137",
"h. c #AC623A",
"j. c #B16237",
"k. c #8C5B44",
"l. c #825D4E",
"z. c #935D42",
"x. c #845F51",
"c. c #8C604E",
"v. c #956047",
"b. c #9A6044",
/* pixels */
"O O O o O . o . . O O - , f f , - # . . . o o o O o O o . o + $ > g k k k j k k k j , , # # # $ > f f , - O O o o o o . . .     ",
"O O O O O O O O o O O - , j g , $ # O O O O O O O o O o o O + $ > j k k k k k k k k j , $ # @ $ , f g , $ # O o O O O O O O O O ",
"O O O O O # O O O O $ - , f g , - $ # # O O # O # O + O # # $ - , g k k k j j k k k k , - $ $ - , f g , - $ # # + # + # $ $ % $ ",
"o O O O @ $ - $ - - - , f j j f , - $ $ $ - - $ - $ - - $ $ - > f g k k k k k k k k k , > - - > f j j f > - $ $ $ $ $ > , , f f ",
"  O O @ - > , , , , , , g j j j , , , > , , > > > > > > , , , f g j k k k k j k k j j , , , , , f j j j , , > > : , , g k W W Q ",
"o O O $ > , f j g g j j j j j j k , j j j , j j g g f f f g f g j j j k k j j k k k j j k , j j j j j j j j j f f g k W ~ ] [ [ ",
"O O $ - , g k k k j k j j k k j j k k k k j k j k k k k k k k k k k k j k j k k k j k k k k j k k j k k j k j j k k k ! ] | #.#.",
"$ - - , f j k k k k k k k j k k k k k k k k k k k k k k k k k k j k k j k k k j k k k k k k k k k k k j k k k k k k W ~ ] @.#.%.",
", , , , g k k k k k k k j k k j k k k k k k k k k k k k j S j S k k k j k j S j k k k j k k k k k k k j k k k k j k D ~ ] @.#.$.",
"f g j j j j k j k k k k k j k k j k k k k k j k k k j k j j j j k j k k j j j j k j k k j k k k j j k k k k k g j k k Q ] @.#.$.",
"k j k k k j k k k k j j k j j k k j k j j k k k j k k k k j j j j k j k S j j k k k j k k j k j k k k j k j k k j j z ! ] +.@.$.",
"k k k k k k j k j k k k k k k j j j j j j j j j j j j j k j j j j k j j j j j j h j j j j j k j j j k j k k k g j k W ! ] +.#.#.",
"k k k k k j k k k j j k j j j j j g j j j j j j j j j j j j j j j j j j j j j j j j j j j j j j j j k k j k k k j k D Q ) +.#.#.",
"k k k k k k k j j k k k k k k k j k k k k k k k k k j k j j j S k k k k k k j j k j k j k k k k k k k j k k j j j k S ! ] +.#.#.",
"f g g j j j k k k k k j j k k k z l F D D z W k D k S S S S S S k k S S S S S S S S S z D z l z z k k j k j k j j j S Q ] | #.#.",
", , , , g j j j k j j j j j z l L P Y U I ~ ! ~ ! ! ! ! ! ! ! ! Q Q ! ! ! ! W ! ! Q E / U T P L F k j j g k j j j k S Q ] o.#.#.",
"$ $ - > , j k j g g j j j j k L R >.5.7.R ' [ ] ] ] ] ] ] ] ) ) ] ] ) ] ] ] ] ] ] ] { U 5.9.>.R L h h j g j j j j k S ~ ) @.@.$.",
"O # @ > , g k k S S j j j j F Y >.e.u.s.v...O.O.O.@.O.O.O.O.o.%.O.O.O.O.o.O.O.o.O.@.X.8.0.u.t.>.G F j j j k j j j k D ~ ] @.@.$.",
"+ O $ - , f k k S S S S W S F R 3.p.f.s.8. .[ +...X.X.c.X.c.X.X.X.c.c.X.X.c.X.%.%.@.X.b.g.f.p.3.R F S W S S D k k k W Q ) +.#.$.",
"$ - - > , g k S D D ! ! ! ! / 6.y.f.f.3.6.U / ' } v.b.b.b.b.b.b.b.v.b.b.b.v.v.c.c.%.c.z.g.f.f.y.4./ ! W ! ~ ! D k k k Q ] @.@.$.",
", , , , f j k W ! ) ] ] ] ]  .q.y.f.p.2.K D D L 4.0.g.j.g.g.g.g.g.g.g.g.d.g.h.v.c.%.c.b.g.f.p.s.7.{ ] ] ] ] ) Q W k k Q ] +.$.$.",
"g g g g j k S W ) [ O.O.O.+.X.z.g.f.p.;.G = = G :.e.f.f.f.f.f.f.f.f.f.f.f.f.d.w.k.#.l.k.h.f.f.y.q.X.O.O.O.+.[ ) ! k W Q ] +.@.#.",
"f g g j k S W ~ ] @.%.O.o.O. .q.g.a.r.-.u = = e H 2.r.i.r.r.r.r.r.i.r.i.i.i.s.9.R .. .8.h.f.f.g.b.X.#.@.O.O.] ) Q W W ~ ) o.+.@.",
", , f g S Q ~ [ o.@.O.o.] F U 4.y.p.r.-.u * + w u J -.;.;.-.;.;.-.;.-.-.;.;.:.T I F U R 3.r.f.g.b.c.@.O.] ~ ! Q Q Q ~ ~ ) ) ] ) ",
"$ - > g D ] [ O.@.#.o.] S S D K 3.p.r.;.u * + * = e y y u u t t u u u t u u t e r g D K 2.f.f.g.b.x.@.) D j S S Q ) ] ) ) ~ Q Q ",
"O # - f D ] +.#.%.@.[ ! S : = G <.r.r.;.n = O O * * = = = = = = = * = = = = * * @ * w n <.r.f.g.b.X.o.! S ; ; j Q ] [ ] ~ D D k ",
"o O $ , D ) [ @.%.@.[ W , $ = u ;.r.r.;.n = O O + * = = = = = = = = = = = = * + O + = u ;.r.f.g.v. .] S ; @ @ : D ) ] ) ~ D D k ",
"  o # - g D / [ O.#.[ W , @ = u ;.r.r.<.n = + * w e u u u u u u u u u u u u e w + O = u ;.r.p.y.6.U S , - O # ; f D Q ! ~ ~ ! ! ",
"o O + + ; f k ~ ] @.o.! , @ = u ;.r.r.;.n = + w u J ;.<.<.;.;.;.;.;.;.<.;.;.J u 2 + = u ;.r.a.3.R F : $ # O O @ ; , j D ~ ) ] ] ",
"o O O O # + : k ) [ [ ! , $ = u ;.r.r.=.u = * e H 2.r.i.r.i.r.r.r.r.r.r.r.r.2.H e * = u ;.r.p.<.G : @ O O O O O + @ : j Q ] +.@.",
"O O O o o O + f D ) ) S , $ = u =.e.e.=.y = * e H 2.i.i.r.r.r.r.r.r.r.r.r.r.2.H e * = u =.e.e.;.u = O o O O O o o O @ f Q ] +.@.",
"o o o o o o # ; g S S g ; @ * t *.1.1.J t = * w u -.;.;.<.;.;.;.;.;.;.<.<.;.J n 2 * * t J 1.2.-.t * o o o o o o o o @ , S / ] [ ",
"o O o o o o # % : , , ; $ O % t B ,.<.M t * + * w t i n u u u u u u u u n u u w * + * t M ,.,.B t % o o o o O o o O O > j W ! ~ ",
"O o O o o O O O @ @ # # O O % t M *.&.m 3 % O + * * = = = = = = = = = = = = * + O + * 3 M *.&.m 3 % o o o O O o o O @ - f j k W ",
"+ # # # O O O O O O O o o O % 3 b &.&.b 3 % O O O * % * * % % % @ * * % * % + + O O + 3 b B &.b 3 % O o o O O O o O O - , f k k ",
"$ * @ + # O o o o o o o o O % 3 b B B v 3 % + + * 1 2 3 2 w 3 2 w w 2 3 2 2 2 * + O * 3 b &.B b w * O o o O o o o O O $ , f j k ",
", , ; $ @ O o o o o o o   O % 3 b &.B b 3 + + = 3 y v v v v v v b v v v b v y 3 = + * 3 b &.&.b 3 * O O . O o O   O O $ - , j k ",
"j g , , $ O O o o O O o o O % 3 b &.B v 3 % % = y m &.&.&.B &.B B B B &.&.B M q 1 + % 3 v B B v 3 % O . . O O O o O # - , j k k ",
"j j j , : ; @ # O O O o o O % 3 v B B v 2 % + 2 q M &.&.&.&.B B B B &.&.&.B m y 1 % % 2 v B B v 3 % O . o O O O # @ - , j k k W ",
"S S j S j j , ; $ O o .   o + 2 q N N 0 2 % + = 3 y v N b b b b b b b b m b q 3 = # % 2 0 N N q 2 + o   . o O $ - f g k W Q Q ~ ",
"j S k S ! Q D j : # o     o + 1 0 c c 0 2 + + + & 2 3 3 3 3 3 3 3 3 3 3 3 3 2 = + + + 1 9 c c 0 1 + o     o # ; h D Q ) ) ] ] [ ",
"j j S W ~ ] ) D , @ o o o o + & 8 9 9 9 & + O O + + + % % % % % * % * + X + + + O O + 1 8 9 9 8 1 + o o o o @ : D ) o.+.| O.O...",
", g j W ) [ ] ~ j : $ $ @ @ - 2 8 9 9 5 X + O O O + + + + + + + + + + + # + + O O O + X 5 a 9 8 2 - @ @ @ @ ; g F ] O.+...o.o.o.",
", , g S D ) ] ~ S S g , g g h p s 9 8 < X + o O + X X X % X X X X % X X X X X + O O + X < 8 a s s h g g g g S S ! ] ] [ ] [ ] ] ",
"@ - ; , S D ~ ~ ~ ~ ~ ~ ! ! W E V s 9 < X + O X % < < < < < < < < < < < < < < X X o + X < 9 a d x F Q ! Q Q Q Q ! ~ ~ Q ~ Q ~ ~ ",
"O @ @ ; , S D ~ ) ] [ | ] o._ E Z V 9 < X % O X 4 8 8 a 9 9 9 9 8 a 9 9 9 9 8 < X + + X < 9 V E ^ ) [ [ O.[ [ ) ! D D S S S S S ",
"O O # $ , g S ! ) [ +.@.@.+.[ ^ E C s 7 & & - 6 s s V V V V V V V V V V V V a 7 6 - & & 7 s C E ` [ +.@.@.+.[ ) Q D k j k j j k ",
"o O O $ ; , S W ~ ] ] ] o.] [ _ E E E x z h h z x A A A A A A A E E A A E E Z Z z h g z x E E E ( ] [ [ [ ] ] ~ D k j g j g j j ",
"o O O $ > f j W W Q Q ~ ~ ~ ~ ) ( ` ` ( / ~ ~ ( ( ` ` ` ` ` ` ` ` ` ` ` ` ` ` ( / / ~ / ( ` _ ( / ~ ~ ~ ~ ~ ~ W S S j h j j h j ",
"o o O - , f k k k k S S D S D / ) | [ +.| [ [ o.[ +.| +.@.| | +.| +...+.+.| +.+.[ [ [ | +.| [ _ ~ W D z S k S k k k k k j k j j ",
"o O # - , f k k k k k j j k S Q ) [ o.+.+.@.+.@.o.o.+.+.| O.+.+.+.+.@.+.+.+.+.+.+.+.+.@.+.o.[ ) W D j j j k k k k j k k k k S S ",
"o O + $ , g k k k k j j g k k D ~ ) ] o.] ] ] ] ] o.] _ ] [ ] [ ] _ ] ] ] ] ] ] [ ] ] [ ] ] ) ~ W k j j j j g k h k k S W ! Q Q ",
"o O O - : g j k k g j j j j k k W ! Q Q ~ Q ~ ~ ! ~ ! ! ! ~ ! ! ~ ~ ! ~ ! ! ~ ! ! ~ ~ ~ ~ ! ! W S k g k g k k g j k k S ~ ) ) [ ",
"o O @ $ , g k k k k k k k k k k k S S S D D D k W z k W S D S S W k k W W k S D D S S D D k D k k k k j k k k g j k D Q ) o.o.@.",
"o o + $ , f j k k k k j k k k k k k k j k j k k j j k j k j k j k j k k j k k j k j k j k k k k k k k k k k k k j k D ~ ) o.@.$.",
"o o O - ; f j k k j j k j k k k j j j j j j k g j j j j j j j j j j j j g j j j j j j j j j g j j j g k g k g j j j k Q [ +.$.$.",
". . O $ , , j j j k h j k k k j j j j j j j g j j j k j j j j j g j j g j g j g j g j j j j k k j j j j j j k j j j S ~ [ +.$.$.",
"O O @ $ , j j k k k k k k j k k k k k k k j k k k k j k j k j j k j k k j k k k k k k j k k k k k k k k k j k k j k k Q ) +.#.$.",
"@ $ - > f k k W k S S k k k j k k j k j k k D k k k k S k D D D k D S D k D k W D S D k k k k k k k W k k W S k k D W ) o.+.@.$.",
"f g j k W ! ~ ~ ~ ~ Q W S k j h j k k W W Q ! W S k k k W W ! ~ ~ ~ ! ~ ~ Q Q Q ~ ! W D k k k D W Q Q ~ Q Q ! ~ ~ ~ ~ ) o.+.@.#.",
"Q Q ! ) / ) ) _ [ ] ) ~ W k k k j j k W ~ ) ) ~ D k S D ! ) ] ] ] ] ] ] ] ] ] ] ] ] ) ! W k k W ! ) ] ] ) _ ] ) ) ] [ [ +.@.$.#.",
"[ [ [ [ o.o.@.@.+.+.[ ) ! k k j j k z ! ) [ [ ) Q S S W ) [ +.+.@.+.+.+.@.+.+.@.+.o.[ ) W D k W ) [ +.@.@.+.@.o.@.o.+.@.@.@.#.@.",
"@.#.#.@.@.#.@.#.$.@.O.] Q S k h j k W ! ] +.+.] Q S S W ) +.#.#.#.#.@.#.@.#.#.#.#.#.O.) Q z S W ) +.@.#.$.@.@.@.#.@.@.#.@.#.@.#.",
"%.%.%.%.#.$.$.$.$.$.+.[ ~ k j j j k k ~ [ @.+.] Q D D ! ] +.#.#.#.#.$.#.$.#.#.#.$.#.@.) ! W D ! ] @.#.$.$.$.$.$.$.$.#.$.$.@.$.@."
};
