/* XPM */
static char *result[] = {
/* columns rows colors chars-per-pixel */
"16 16 6 1 ",
"  c #222222",
". c #62232F",
"X c #5F2D56",
"o c #DA4E38",
"O c #FDF7ED",
"+ c None",
/* pixels */
"++++++++++++++++",
"++++++++++++++++",
"++++++++++++++++",
"++++++++++++++++",
"++++++++++++++++",
"+++++++  +++  ++",
"++++++ X ++ X ++",
"++++   X    X ++",
"++++ o X oo X ++",
"++++ ooooooo +++",
"++++ ooOOooO +++",
"++++ ooOOooO +++",
"++++ oo..oo. +++",
"++++ ooooooo +++",
"++++ XX   XX +++",
"++++    +    +++"
};
