/* XPM */
static char *result[] = {
/* columns rows colors chars-per-pixel */
"64 64 184 2 ",
"   c #161617",
".  c #151919",
"X  c #191B1B",
"o  c #1E211F",
"O  c #171F21",
"+  c #181F21",
"@  c #1B2021",
"#  c #222222",
"$  c #2B2423",
"%  c #252229",
"&  c #2B232A",
"*  c #342624",
"=  c #392726",
"-  c #3B2825",
";  c #30252D",
":  c #3E292A",
">  c #312D2D",
",  c #342534",
"<  c #392636",
"1  c #3E273D",
"2  c #3E2A32",
"3  c #3C3938",
"4  c #3C312D",
"5  c #4A2C26",
"6  c #43292B",
"7  c #462925",
"8  c #512B27",
"9  c #532D2C",
"0  c #5A2F28",
"q  c #51262B",
"w  c #5E302B",
"e  c #5B3027",
"r  c #4B2B34",
"t  c #43283E",
"y  c #462837",
"u  c #512B3D",
"i  c #572C31",
"p  c #53343A",
"a  c #652B2B",
"s  c #64322A",
"d  c #6B332C",
"f  c #74332A",
"g  c #78372B",
"h  c #6E2A31",
"j  c #742A31",
"k  c #663439",
"l  c #733436",
"z  c #7B343A",
"x  c #7D2B2A",
"c  c #40403E",
"v  c #452843",
"b  c #4B2944",
"n  c #4F2A48",
"m  c #432745",
"M  c #5B2E42",
"N  c #542B4D",
"B  c #572B50",
"V  c #592C50",
"C  c #493E41",
"Z  c #662F4B",
"A  c #693449",
"S  c #7F3744",
"D  c #713F4A",
"F  c #6F3152",
"G  c #733254",
"H  c #414140",
"J  c #5A5454",
"K  c #784049",
"L  c #6A5756",
"P  c #694942",
"I  c #6C6865",
"U  c #71726E",
"Y  c #737673",
"T  c #8B2B2C",
"R  c #84392D",
"E  c #893A2E",
"W  c #89362B",
"Q  c #99332E",
"!  c #953D2E",
"~  c #9C3C2D",
"^  c #96312C",
"/  c #822F32",
"(  c #893A32",
")  c #943D30",
"_  c #9A3E31",
"`  c #9A3734",
"'  c #AD3930",
"]  c #A53B39",
"[  c #B43C31",
"{  c #9E4032",
"}  c #B2412F",
"|  c #AB4332",
" . c #A5413B",
".. c #A34131",
"X. c #B44234",
"o. c #B7473A",
"O. c #D8442D",
"+. c #D7432C",
"@. c #C34434",
"#. c #CA4736",
"$. c #C14835",
"%. c #CC4936",
"&. c #C54939",
"*. c #CB4A3C",
"=. c #D84731",
"-. c #D24B36",
";. c #DC4C35",
":. c #D54C39",
">. c #DA4E38",
",. c #DC513B",
"<. c #E14D36",
"1. c #E04F39",
"2. c #E35139",
"3. c #E8523A",
"4. c #833643",
"5. c #8C394B",
"6. c #9D3F40",
"7. c #933A4F",
"8. c #854246",
"9. c #9D4543",
"0. c #964C40",
"q. c #AD4243",
"w. c #B44346",
"e. c #9F665B",
"r. c #AF635E",
"t. c #976F74",
"y. c #927178",
"u. c #8E6D6F",
"i. c #A06B6C",
"p. c #B36661",
"a. c #C25A4D",
"s. c #D15240",
"d. c #DC5741",
"f. c #D75A47",
"g. c #DE5D48",
"h. c #DA5C48",
"j. c #C45C50",
"k. c #E25B45",
"l. c #DD624D",
"z. c #DF6551",
"x. c #E16652",
"c. c #E66853",
"v. c #D16F61",
"b. c #D37969",
"n. c #E67662",
"m. c #EC7A66",
"M. c #A5847A",
"N. c #CA877E",
"B. c #DF8171",
"V. c #E58573",
"C. c #EA8572",
"Z. c #E78C7A",
"A. c #EC8C79",
"S. c #EA907E",
"D. c #9C9995",
"F. c #AA9995",
"G. c #ABABA6",
"H. c #AFB3AD",
"J. c #C49C98",
"K. c #D08C83",
"L. c #ED9482",
"P. c #F39886",
"I. c #D7A597",
"U. c #E9A99B",
"Y. c #F1AC9B",
"T. c #C1A8A7",
"R. c #C0AEAE",
"E. c #F2B9AB",
"W. c #F5B2A2",
"Q. c #EAADA1",
"!. c #D4C3BB",
"~. c #E6C7BE",
"^. c #F5C1B2",
"/. c #F8C9BA",
"(. c #DFD9D0",
"). c #E8DAD3",
"_. c #F8DFD3",
"`. c #F5CDC0",
"'. c #E6E3DC",
"]. c #F9E0D5",
"[. c #FDEADE",
"{. c #FDF7ED",
"}. c #FFFFFA",
"|. c None",
/* pixels */
"|.|.|.|.|.|.|.|.|.|.|.|.|.|.|.|.|.|.|.|.|.|.|.|.|.|.|.|.|.|.|.|.|.|.|.|.|.|.|.|.|.|.|.|.|.|.|.|.|.|.|.|.|.|.|.|.|.|.|.|.|.|.|.|.",
"|.|.|.|.|.|.|.|.|.|.|.|.|.|.|.|.|.|.|.|.|.|.|.|.|.|.|.|.|.|.|.|.|.|.|.|.|.|.|.|.|.|.|.|.|.|.|.|.|.|.|.|.|.|.|.|.|.|.|.|.|.|.|.|.",
"|.|.|.|.|.|.|.|.|.|.|.|.|.|.|.|.|.|.|.|.|.|.|.|.|.|.|.|.|.|.|.|.|.|.|.|.|.|.|.|.|.|.|.|.|.|.|.|.|.|.|.|.|.|.|.|.|.|.|.|.|.|.|.|.",
"|.|.|.|.|.|.|.|.|.|.|.|.|.|.|.|.|.|.|.|.|.|.|.|.|.|.|.|.|.|.|.|.|.|.|.|.|.|.|.|.|.|.|.|.|.|.|.|.|.|.|.|.|.|.|.|.|.|.|.|.|.|.|.|.",
"|.|.|.|.|.|.|.|.|.|.|.|.|.|.|.|.|.|.|.|.|.|.|.|.|.|.|.|.|.|.|.|.|.|.|.|.|.|.|.|.|.|.|.|.|.|.|.|.|.|.|.|.|.|.|.|.|.|.|.|.|.|.|.|.",
"|.|.|.|.|.|.|.|.|.|.|.|.|.|.|.|.|.|.|.|.|.|.|.|.|.|.|.|.|.|.|.|.|.|.|.|.|.|.|.|.|.|.|.|.|.|.|.|.|.|.|.|.|.|.|.|.|.|.|.|.|.|.|.|.",
"|.|.|.|.|.|.|.|.|.|.|.|.|.|.|.|.|.|.|.|.|.|.|.|.|.|.|.|.|.|.|.|.|.|.|.|.|.|.|.|.|.|.|.|.|.|.|.|.|.|.|.|.|.|.|.|.|.|.|.|.|.|.|.|.",
"|.|.|.|.|.|.|.|.|.|.|.|.|.|.|.|.|.|.|.|.|.|.|.|.|.|.|.|.|.|.|.|.|.|.|.|.|.|.|.|.|.|.|.|.|.|.|.|.|.|.|.|.|.|.|.|.|.|.|.|.|.|.|.|.",
"|.|.|.|.|.|.|.|.|.|.|.|.|.|.|.|.|.|.|.|.|.|.|.|.|.|.|.|.|.|.|.|.|.|.|.|.|.|.|.|.|.|.|.|.|.|.|.|.|.|.|.|.|.|.|.|.|.|.|.|.|.|.|.|.",
"|.|.|.|.|.|.|.|.|.|.|.|.|.|.|.|.|.|.|.|.|.|.|.|.|.|.|.|.|.|.|.|.|.|.|.|.|.|.|.|.|.|.|.|.|.|.|.|.|.|.|.|.|.|.|.|.|.|.|.|.|.|.|.|.",
"|.|.|.|.|.|.|.|.|.|.|.|.|.|.|.|.|.|.|.|.|.|.|.|.|.|.|.|.|.|.|.|.|.|.|.|.|.|.|.|.|.|.|.|.|.|.|.|.|.|.|.|.|.|.|.|.|.|.|.|.|.|.|.|.",
"|.|.|.|.|.|.|.|.|.|.|.|.|.|.|.|.|.|.|.|.|.|.|.|.|.|.|.|.|.|.|.|.|.|.|.|.|.|.|.|.|.|.|.|.|.|.|.|.|.|.|.|.|.|.|.|.|.|.|.|.|.|.|.|.",
"|.|.|.|.|.|.|.|.|.|.|.|.|.|.|.|.|.|.|.|.|.|.|.|.|.|.|.|.|.|.|.|.|.|.|.|.|.|.|.|.|.|.|.|.|.|.|.|.|.|.|.|.|.|.|.|.|.|.|.|.|.|.|.|.",
"|.|.|.|.|.|.|.|.|.|.|.|.|.|.|.|.|.|.|.|.|.|.|.|.|.|.|.|.|.|.|.|.|.|.|.|.|.|.|.|.|.|.|.|.|.|.|.|.|.|.|.|.|.|.|.|.|.|.|.|.|.|.|.|.",
"|.|.|.|.|.|.|.|.|.|.|.|.|.|.|.|.|.|.|.|.|.|.|.|.|.|.|.|.|.|.|.|.|.|.|.|.|.|.|.|.|.|.|.|.|.|.|.|.|.|.|.|.|.|.|.|.|.|.|.|.|.|.|.|.",
"|.|.|.|.|.|.|.|.|.|.|.|.|.|.|.|.|.|.|.|.|.|.|.|.|.|.|.|.|.|.|.|.|.|.|.|.|.|.|.|.|.|.|.|.|.|.|.|.|.|.|.|.|.|.|.|.|.|.|.|.|.|.|.|.",
"|.|.|.|.|.|.|.|.|.|.|.|.|.|.|.|.|.|.|.|.|.|.|.|.|.|.|.|.|.|.|.|.|.|.|.|.|.|.|.|.|.|.|.|.|.|.|.|.|.|.|.|.|.|.|.|.|.|.|.|.|.|.|.|.",
"|.|.|.|.|.|.|.|.|.|.|.|.|.|.|.|.|.|.|.|.|.|.|.|.|.|.|.|.|.|.|.|.|.|.|.|.|.|.|.|.|.|.|.|.|.|.|.|.|.|.|.|.|.|.|.|.|.|.|.|.|.|.|.|.",
"|.|.|.|.|.|.|.|.|.|.|.|.|.|.|.|.|.|.|.|.|.|.|.|.|.|.|.|.|.|.|.|.|.|.|.|.|.|.|.|.|.|.|.|.|.|.|.|.|.|.|.|.|.|.|.|.|.|.|.|.|.|.|.|.",
"|.|.|.|.|.|.|.|.|.|.|.|.|.|.|.|.|.|.|.|.|.|.|.|.|.|.|.|.|.|.|.|.|.|.|.|.|.|.|.|.|.|.|.|.|.|.|.|.|.|.|.|.|.|.|.|.|.|.|.|.|.|.|.|.",
"|.|.|.|.|.|.|.|.|.|.|.|.|.|.|.|.|.|.|.|.|.|.|.|.|.|.|.|.|.o o o # # # |.|.|.|.|.|.|.|.|.|.|.|.|.|.# @ # # # # |.|.|.|.|.|.|.|.|.",
"|.|.|.|.|.|.|.|.|.|.|.|.|.|.|.|.|.|.|.|.|.|.|.|.|.|.|.|.# # # # # # # # |.|.|.|.|.|.|.|.|.|.|.|.# # # # # # # # |.|.|.|.|.|.|.|.",
"|.|.|.|.|.|.|.|.|.|.|.|.|.|.|.|.|.|.|.|.|.|.|.|.|.|.|.|.& & & & % # # # |.|.|.|.|.|.|.|.|.|.|.|.& & & $ # # # # |.|.|.|.|.|.|.|.",
"|.|.|.|.|.|.|.|.|.|.|.|.|.|.|.|.|.|.|.|.|.|.|.|.|.|.|.; , , , & & # # # |.|.|.|.|.|.|.|.|.|.|.& , , ; ; & # # # |.|.|.|.|.|.|.|.",
"|.|.|.|.|.|.|.|.|.|.|.|.|.|.|.|.|.|.|.|.|.|.|.|.|.# & , 2 v t < & & # # |.|.|.|.|.|.|.|.|.# & , 1 t t < , # # # |.|.|.|.|.|.|.|.",
"|.|.|.|.|.|.|.|.|.|.|.|.|.|.|.|.|.|.|.|.|.|.|.|.o # & < v N n t , & # o |.|.|.|.|.|.|.|.o # & < v n n t , $ # o |.|.|.|.|.|.|.|.",
"|.|.|.|.|.|.|.|.|.|.|.|.|.|.|.|.|.|.|.|.|.|.|.|.o # & < b N N b < & # o |.|.|.|.|.|.|.|.o # & < b N N n , & # o |.|.|.|.|.|.|.|.",
"|.|.|.|.|.|.|.|.|.|.|.|.|.|.|.|.|.|.|.|.|.|.|.@ o # & < b B V b < & # o o |.|.|.|.|.|.o o # & < b V N n < & # o |.|.|.|.|.|.|.|.",
"|.|.|.|.|.|.|.|.|.|.|.|.|.|.|.|.|.# # @ @ @ @ @ o @ & < b V B n < & # o @ @ @ @ o o @ o @ # & < b V V b < & # o |.|.|.|.|.|.|.|.",
"|.|.|.|.|.|.|.|.|.|.|.|.|.|.|.|.# # # # # # # @ # # & < b N B b < & # o @ # # # # # @ # # # & < b V N b < & # # |.|.|.|.|.|.|.|.",
"|.|.|.|.|.|.|.|.|.|.|.|.|.|.|.|.# # # $ * * = * $ # & < b N B b < & # $ $ = = - - - * * $ # & < b N N b < & # # |.|.|.|.|.|.|.|.",
"|.|.|.|.|.|.|.|.|.|.|.|.|.|.|.|.@ # $ - 8 0 e 5 * $ % , v N N v , % $ * 5 e s s s s e 5 * # % , b V V b , $ # o |.|.|.|.|.|.|.|.",
"|.|.|.|.|.|.|.|.|.|.|.|.|.|.|.|.o # * 5 d R R d 5 & % , m N B m , % $ 7 d R ! ~ { { R s 7 $ % , m B B b < & # o |.|.|.|.|.|.|.|.",
"|.|.|.|.|.|.|.|.|.|.|.|.|.|.|.|.o # * s E | | E w = & , m B B b , & = e R | o.%.%.o.| R e * $ , b N N b < & # # |.|.|.|.|.|.|.|.",
"|.|.|.|.|.|.|.|.|.|.|.|.|.|.|.|.o @ - s { X.$...g 8 : y M Z Z M r 6 8 f { $.>.2.2.>.$...g 5 7 y b n n v , & # @ |.|.|.|.|.|.|.|.",
"|.|.|.|.|.|.|.|.|.|.|.|.|.|.|.|.o # - d ..$.-.o.{ g d h S 4.4.z d d f E } -.2.3.3.2.-.} ! f e 9 r u v 1 , & # |.|.|.|.|.|.|.|.|.",
"|.|.|.|.|.|.|.|.|.|.|.|.|.|.|.|.@ # = s ~ $.>.%.X.{ { _ ] ] ] ` ~ ~ ~ } $.-.>.3.2.>.>.$.} { g w i y , , & |.|.|.|.|.|.|.|.|.|.|.",
"|.|.|.|.|.|.|.|.|.|.|.|.|.|.|.|.@ @ = s ! $.-.:.%.&.$.$.&.*.*.*.$.$.$.%.-.>.>.>.>.>.>.-.-.&.| { a 6 & @ |.|.|.|.|.|.|.|.|.|.|.|.",
"|.|.|.|.|.|.|.|.|.|.|.|.|.|.|.|.@ # - s ! o.>.2.;.>.,.d.g.l.z.z.z.z.l.l.d.,.>.>.>.>.,.k.k.l.a.{ k - # o |.|.|.|.|.|.|.|.|.|.|.|.",
"|.|.|.|.|.|.|.|.|.|.|.|.|.|.|.|.@ # = s _ $.>.<.2.;.k.c.n.C.A.L.S.A.C.n.x.,.>.;.>.,.,.c.m.C.N.r.P 4 @ o |.|.|.|.|.|.|.|.|.|.|.|.",
"|.|.|.|.|.|.|.|.|.|.|.|.|.|.|.|.@ # - s { $.>.<.<.1.k.n.L.Y.E.^.^.E.Y.L.n.g.>.=.=.>.g.m.P.U.I.M.L 3 # . |.|.|.|.|.|.|.|.|.|.|.|.",
"|.|.|.|.|.|.|.|.|.|.|.|.|.|.|.|.@ # = s ( o.;.<.<.>.l.C.Y.`.].[.[.].`.Y.V.g.>.O.O.>.l.Z.W.`.!.F.I c %   |.|.|.|.|.|.|.|.|.|.|.|.",
"|.|.|.|.|.|.|.|.|.|.|.|.|.|.|.|.@ # = s ~ o.>.<.=.;.z.Z.E._.{.}.}.{.].E.Z.z.>.O.O.>.x.L.^.].(.G.U c #   |.|.|.|.|.|.|.|.|.|.|.|.",
"|.|.|.|.|.|.|.|.|.|.|.|.|.|.|.|.@ @ - s { $.;.;.;.>.z.Z.E.[.}.}.}.}.[.^.S.x.>.+.O.>.x.L./.[.'.H.Y c #   |.|.|.|.|.|.|.|.|.|.|.|.",
"|.|.|.|.|.|.|.|.|.|.|.|.|.|.|.|.o # * s E $.;.;.;.;.x.L.^.[.}.}.}.}.[.E.L.x.;.=.+.>.x.L./.[.'.H.Y c #   |.|.|.|.|.|.|.|.|.|.|.|.",
"|.|.|.|.|.|.|.|.|.|.|.|.|.|.|.|.o # - s { X.;.<.<.>.x.Z.E._.{.}.}.{._.E.Z.z.;.+.O.>.x.L.E._.(.H.U c #   |.|.|.|.|.|.|.|.|.|.|.|.",
"|.|.|.|.|.|.|.|.|.|.|.|.|.|.|.|.o @ - s { $.;.;.;.;.l.b.U.`.).'.'.).`.U.b.g.>.=.O.>.l.V.Q.`.R.D.I 3 # X |.|.|.|.|.|.|.|.|.|.|.|.",
"|.|.|.|.|.|.|.|.|.|.|.|.|.|.|.|.@ # * s ! o.>.<.<.1.h.v.K.F.T.H.R.T.F.K.b.h.>.;.=.>.h.b.K.J.F.y.J 3 # X |.|.|.|.|.|.|.|.|.|.|.|.",
"|.|.|.|.|.|.|.|.|.|.|.|.|.|.|.|.@ # = s ) o.>.2.<.>.:.r.r.i.t.y.t.t.i.r.j.:.;.;.;.,.s.j.p.i.u.L c > # X |.|.|.|.|.|.|.|.|.|.|.|.",
"|.|.|.|.|.|.|.|.|.|.|.|.|.|.|.|.@ # = s { $.>.<.2.;.-.o.9.8.K K D D 8.9.o.*.,.;.>.,.:.w.9.4.k p 6 > # o |.|.|.|.|.|.|.|.|.|.|.|.",
"|.|.|.|.|.|.|.|.|.|.|.|.|.|.|.|.@ # = s ! o.;.3.3.>.%.X.Q / j h h j / ` o.*.>.2.2.>.%.[ ` / a q : $ # @ |.|.|.|.|.|.|.|.|.|.|.|.",
"|.|.|.|.|.|.|.|.|.|.|.|.|.|.|.|.@ # = s ! $.>.3.3.;.-.@.' ^ T T T T ^ [ X.-.2.2.2.>.-.@.' Q x a 7 * # @ |.|.|.|.|.|.|.|.|.|.|.|.",
"|.|.|.|.|.|.|.|.|.|.|.|.|.|.|.|.@ @ - s ! &.1.1.2.;.>.#.@.[ [ ' [ [ [ @.%.>.;.2.2.<.;.%.@.[ Q f q * # @ |.|.|.|.|.|.|.|.|.|.|.|.",
"|.|.|.|.|.|.|.|.|.|.|.|.|.|.|.|.@ # - s _ $.>.>.2.>.>.:.%.#.#.$.@.#.#.%.>.>.>.>.>.>.>.>.>.#.X.R e = # + |.|.|.|.|.|.|.|.|.|.|.|.",
"|.|.|.|.|.|.|.|.|.|.|.|.|.|.|.|.@ # = w ( X.*.:.*.*.&.*.&.$.$.o.$.o.$.o.o.$.$.$.&.*.*.*.*.*.X.E 0 = # + |.|.|.|.|.|.|.|.|.|.|.|.",
"|.|.|.|.|.|.|.|.|.|.|.|.|.|.|.|.@ # ; i l 6.q.w.w.w. . . .{ ~ { { ~ _ _ ! _ _  . . .w.w.w.w.9.z 0 = # + |.|.|.|.|.|.|.|.|.|.|.|.",
"|.|.|.|.|.|.|.|.|.|.|.|.|.|.|.|.o # $ r k S 5.7.5.5.5.S z d d d s s s s s s d l 4.5.5.7.7.7.4.A r ; # @ |.|.|.|.|.|.|.|.|.|.|.|.",
"|.|.|.|.|.|.|.|.|.|.|.|.|.|.|.|.o # & 2 n Z G G G F A M r 7 * * * - = = * - 6 r u Z G G G F Z u 2 $ # o |.|.|.|.|.|.|.|.|.|.|.|.",
"|.|.|.|.|.|.|.|.|.|.|.|.|.|.|.|.o # & < t n N V V B n v < $ @ # # # # @ # # > , v N V V V N n t , $ # # |.|.|.|.|.|.|.|.|.|.|.|.",
"|.|.|.|.|.|.|.|.|.|.|.|.|.|.|.|.# # # & , t v v v m m , & # @ o o o o o @ + # & , 1 m m b v t , , # # # |.|.|.|.|.|.|.|.|.|.|.|.",
"|.|.|.|.|.|.|.|.|.|.|.|.|.|.|.|.# # # & & , , , < , , & % @ @ o @ |.|.@ X @ # % & , , , , , , & & # # # |.|.|.|.|.|.|.|.|.|.|.|.",
"|.|.|.|.|.|.|.|.|.|.|.|.|.|.|.|.# # # % % & & & & & % % # # % # |.|.|.|.# # # % # & & & & & & # # # # # |.|.|.|.|.|.|.|.|.|.|.|.",
"|.|.|.|.|.|.|.|.|.|.|.|.|.|.|.|.# # # # # # # # # # # # # # # # |.|.|.|.# @ # # # # # # # # # # # # # # |.|.|.|.|.|.|.|.|.|.|.|.",
"|.|.|.|.|.|.|.|.|.|.|.|.|.|.|.|.# # @ # # o o o o o # @ # # # # |.|.|.|.# # # # # # X # # + # # + # # # |.|.|.|.|.|.|.|.|.|.|.|."
};
