/* XPM */
static char *result[] = {
/* columns rows colors chars-per-pixel */
"64 64 92 1 ",
"  c #160D12",
". c #190F15",
"X c #1B1117",
"o c #1E1419",
"O c #191A1B",
"+ c #21151B",
"@ c #231A1E",
"# c #1E1F20",
"$ c #241D21",
"% c #2A1D22",
"& c #1F2020",
"* c #232222",
"= c #2D2326",
"- c #2B2827",
"; c #2E2A29",
": c #302227",
"> c #322629",
", c #342C2C",
"< c #3A2C2E",
"1 c #37302E",
"2 c #39312F",
"3 c #3C2E30",
"4 c #343331",
"5 c #3C3533",
"6 c #3A3835",
"7 c #423636",
"8 c #443936",
"9 c #463B39",
"0 c #493C3B",
"q c #44403C",
"w c #4F403E",
"e c #51423E",
"r c #4E4943",
"t c #554541",
"y c #594743",
"u c #524B45",
"i c #5B4945",
"p c #534F48",
"a c #5F4B48",
"s c #5E5750",
"d c #5E5851",
"f c #604D47",
"g c #634E49",
"h c #67514C",
"j c #6B534E",
"k c #625B53",
"l c #6F5951",
"z c #705751",
"x c #725A53",
"c c #6F665D",
"v c #74655B",
"b c #7D625A",
"n c #7F6A60",
"m c #81655C",
"M c #82685E",
"N c #866D62",
"B c #8D7064",
"V c #867B6E",
"C c #907467",
"Z c #917568",
"A c #9A7D6E",
"S c #918577",
"D c #9B8273",
"F c #948779",
"G c #96887A",
"H c #A48775",
"J c #A68977",
"K c #A88A77",
"L c #A78C7A",
"P c #AA8D7A",
"I c #AD907D",
"U c #A39281",
"Y c #AF9380",
"T c #AF9987",
"R c #A89988",
"E c #B09481",
"W c #B29884",
"Q c #B79F8B",
"! c #B99E8A",
"~ c #BDA38F",
"^ c #B7A491",
"/ c #BBA692",
"( c #BAA996",
") c #BFAD9A",
"_ c #C4A994",
"` c #C6AD98",
"' c #C7B19C",
"] c #CBB39D",
"[ c #CDB7A2",
"{ c #CDB8A2",
"} c #D1BCA6",
"| c None",
/* pixels */
"||||||||||||||||||||||||||||||||||||||||||||||||||||||||||||||||",
"||||||||||||||||||||||||||||||||||||||||||||||||||||||||||||||||",
"||||||||||||||||||||||||||||||||||||||||||||||||||||||||||||||||",
"||||||||||||||||||||||||||||||||||||||||||||||||||||||||||||||||",
"||||||||||||||||||||||||||||||||||||||||||||||||||||||||||||||||",
"||||||||||||||||||||||||||||||||||||||||||||||||||||||||||||||||",
"||||||||||||||||||||||||||||||||||||||||||||||||||||||||||||||||",
"||||||||||||||||||||||||||||||||||||||||||||||||||||||||||||||||",
"||||||||||||||||||||||||||||||||||||||||||||||||||||||||||||||||",
"||||||||||||||||||||||||||||||||||||||||||||||||||||||||||||||||",
"||||||||||||||||||||||||||||||||||||||||||||||||||||||||||||||||",
"||||||||||||||||||||||||||||||||||||||||||||||||||||||||||||||||",
"||||||||||||||||||||||||||||||||||||||||||||||||||||||||||||||||",
"||||||||||||||||||||||||||||||||||||||||||||||||||||||||||||||||",
"||||||||||||||||||||||||||||||||||||||||||||||||||||||||||||||||",
"||||||||||||||||||||||||||||||||||||||||||||||||||||||||||||||||",
"|||||||||||||||||OOOOOOOOOOOOOOOOOOOOOOOOOOOOOO|||||||||||||||||",
"||||||||||||||||****&**&**&**&**&*****&*&***&***||||||||||||||||",
"||||||||||||||||66666666566566666666666666666666||||||||||||||||",
"|||||||||||||||qpdkkkkkkkkkkdkkkkkkkkdkkkdkkkkdpr|||||||||||||||",
"|||||||||||||O1ucVSSSSSSSSSSSSSFSSSSFSSSFSSSSSVcr;O|||||||||||||",
"||||||||||||O*6dVR(`)(((((((((((((((((((((()`(RVd6*#||||||||||||",
"||||||||||||46rcS({}{{{{[[[[[[[[[[[[[[[[{{{{}{(Scr6;||||||||||||",
"|||||||||||qrscVU(]]{]]]]]]]]]]][`[']]]]]]]{]]/LVcdu9|||||||||||",
"|||||||||*4pcVGUTQ~__~~_~~~__!_!!/~~~~_~~~~_~~^TLGVcp4&|||||||||",
"||||||||O*4sVR^/QWYIEIIEIEEIEEIEEEEEEEYYEYEEEIEQ(^RVd6*O||||||||",
"||||||||*;0cS~`_~YPPPPPPPPPPPPPPPPPPPPPPPPPLPPI~`'^Sc8;*||||||||",
"|||||||;25evF~`_QIPKKLKLKLKLKPKLLKPKKKKKPKKKJPI~_`~Svu51,|||||||",
"|||||*;29ejbGW_~EIPLKPPPPPPPPLPPPPPKPPPKPPPKKPIW~~TDnht82;*|||||",
"||||O*;5whxNDIIIIPPPPPPPPPPPPPPPPPPPPPPPPPPPPPPIIIJDBxhw5;*#||||",
"||||**-4wfxMBDHKPPPPPPPPPPPPPPPPPPPPPPPPPPPPPPPPKKDCMxg05-*&||||",
"||||&*-,7wfxMCDDKPPPPPIPPPPPPPPIPPYPPPIPPIPPIPPKDACMxfe5,-*&||||",
"||||&*--,20fxMCDAKIIIIIIPIPIIPPPPIPIIPIPIIIIIPKHACMxee5;;**&||||",
"||||****-;10fzMZAHPPPPKPPPPPPPPUPPPPPPPPKKKIPPHDBMxfw2;-***&||||",
"||||&***--18ehxMAAHKHHHKJHHHHHHHHHHHHHJJHHHHKHACMxge81---***||||",
"||||&*--,2880eilNZAAAAAAAAAAAAAAAAAAAAAAAAADDACMxfe0882,;***||||",
"||||&*-28eew979yzMBBBBBBBCBBBBBBBCBBBCBBBBBBCBMlew78wee81-&&||||",
"||||&*-2efge812qfzbmmmmxmxmmbbbbmxmmmxmmbbbmmbxfw228effe6;*&||||",
"||||&*-7eghe91<7tgjzzjjjjjjjjjjjjjjjjjjjzlzzljfe7128ehhe6;&&||||",
"||||&*-7efhfw88000ttettttetettttteettteeeeeeeeew878efhfe2;-&||||",
"||||&*-29eyayyt0072272725555555575552555572227780tyiait82-*&||||",
"||||&*-150tigggt8<;-;;;;;;>;;;;,:;;>,;;;;;;;-;18tghgie05,-*&||||",
"||||@**;570yhjhi91;;;;;;;;>:;,;;;,;;;;;;;;;;-;<0ihjhy082;*$$||||",
"||||OO*-390tfggiw9765577757755555575575775777780iggfi07,-*@O||||",
"||||oo$-<80tyiyifeeeeeeiytyyyyytytyyytyyeeeieiefiiyye07<=@Oo||||",
"||||oo@=>70000eigjzjlllzjjjjjjjjjjjjjjjjlljjjzhfyew0097<=@oX||||",
"||||XX+%>777000ygjzzzzzzzzzzzzzzzlzzzzzzllzlzzjgyw09777,=+XX||||",
"|||||X+@=><<77eeihjjjjhhhjhhjhjgjjhhhjhjjjjhjjgft0777<>>@+o|||||",
"|||||||+@@%,270etyaayaayaayyaayayayayayaiiyaayytw077>:%%@|||||||",
"||||||||Xo@%,700wwwww0ww0wwwwwwwwwwwwwwwwwwwwwwww07<:%$+||||||||",
"||||||||  o@:78900000000000000009909999909000970973>%+X ||||||||",
"||||||||  X@@><77770099999999999099990099990997773<%$o  ||||||||",
"||||||||..o+@:>777000900090000090090000009000977<:%$X.  ||||||||",
"||||||||+o+o@@%:37000000009999099009000900090977:%$+..  ||||||||",
"||||||||++oo+@+:<377777777777777777777777777777<:$+...  ||||||||",
"||||||||++++++@%:<3<<<<<<<<<<<<<<<<<<<<<<<<<<<<:%$ooX. .||||||||",
"||||||||+++++@@%%%:%::%::%:%:::%:::%::::::::::%%$$Oo+XX.||||||||",
"||||||||++++@@=@$$%%%+%+%%$$$+%$++%%%+%+$$+%%%$$$$*@+++X||||||||",
"||||||||X+++=*=*$$$o++++++++++++++++++++o++++$$$*==$++++||||||||",
"||||||||+++%-=;-$$$$+$+$#+++$+##%+++#+++$o@+++$$:;>:%+++||||||||",
"||||||||++$%><1,=*$#$#$#$$#$#$#$$#$#$$#$#$###$$=,1<,%+++||||||||",
"||||||||o+@:>751;-$##$#*$#$#**$&$$#*$#$#**$#$**;455,:@++||||||||",
"||||||||o++:3785;***$&****$#****&*&&**$#&**&&*-,577<:@++||||||||",
"||||||||X+$:37754-&&**&***#$&**&**-&**&$****&**,5873:@++||||||||"
};
